<svg aria-hidden="true" style="position:absolute;width:0;height:0;overflow:hidden" xmlns="http://www.w3.org/2000/svg">
  <defs>
    <symbol id="mitsubishi" viewBox="0 0 32 32">
      <path d="M10.667 29.84H0l5.333-9.227H16zm10.666 0H32l-5.333-9.227H16zm0-18.453L16 2.16l-5.333 9.227L16 20.614z" />
    </symbol>
    <symbol id="lamborghini" viewBox="0 0 32 32">
      <path
        d="M15.82 0a42.602 42.602 0 0 0-5.16.349l.211-.022-.813.111c-.097.012-.24.035-.315.051-.06.014-.153.031-.248.045l-.027.003a9.68 9.68 0 0 0-.417.067l.064-.01-.353.064c-.257.045-1.017.2-1.401.287-1.419.317-2.993.792-3.64 1.099-.457.217-1.029.675-1.24.991a2.824 2.824 0 0 0-.38 1.019l-.002.017c-.039.211-.043.307-.045 1.109a38.37 38.37 0 0 0 .059 2.487c.221 4.025.928 7.387 2.248 10.667.959 2.449 2.141 4.564 3.566 6.488l-.053-.075a29.188 29.188 0 0 0 4.527 4.893c1.025.88 2.316 1.873 2.768 2.127.515.289 1.093.312 1.587.063.4-.204 1.843-1.299 2.817-2.139a32.796 32.796 0 0 0 4.108-4.294l.051-.066c.68-.86 2.055-3.005 2.636-4.113 2.163-4.12 3.399-9.177 3.535-14.416.04-.856.06-1.632.04-2.039a5.958 5.958 0 0 0-.025-.328l.002.024.001-.529-.22-.457a2.267 2.267 0 0 0-.509-.709l-.001-.001c-.261-.273-.496-.428-1.044-.692C26.818 1.431 25.03.927 22.87.58a27.778 27.778 0 0 0-1.917-.274L20.8.292l-.539-.064a9.09 9.09 0 0 0-.516-.048l-.03-.002a49.7 49.7 0 0 0-2.548-.157l-.102-.003a28.16 28.16 0 0 0-.958-.016l-.299.002h.015zm.223 1.107c4.453-.009 8.171.581 11.199 1.776 1.12.44 1.32.577 1.547 1.056.171.36.173.413.125 2.255-.263 10.12-3.733 17.625-10.817 23.388-.859.7-1.755 1.337-1.979 1.408-.111.035-.313-.044-.644-.249-.656-.407-2.291-1.737-3.387-2.757-1.803-1.673-3.609-3.916-4.84-6.008-2.627-4.459-3.991-9.659-4.152-15.821-.047-1.8-.043-1.856.128-2.216.227-.476.429-.616 1.507-1.036 2.973-1.164 6.113-1.701 10.413-1.785.304-.005.604-.009.9-.009zm-1.255.944-.06.004c-.267.032-.597.275-.756.563-.364.66-.293 2.123.128 2.632.164.2.251.235.561.235.207 0 .445-.053.543-.124.097-.069.253-.276.347-.46.245-.48.251-1.687.009-2.224-.155-.343-.444-.591-.717-.621l-.029-.003h-.027zm1.459.08-.023 1.644c-.009.434-.013.946-.013 1.459v.126-.007a.405.405 0 0 0 .028.083l-.001-.003c.033.007.119.012.231.012h.243V4.74c0-.675.007-.703.168-.679.133.02.216.168.409.724l.243.699h.587l-.259-.752-.257-.753.211-.201c.257-.248.337-.608.227-1.023-.121-.463-.429-.623-1.188-.624zm3.168.08c-.673 0-.977.511-.973 1.637 0 .744.112 1.213.352 1.484.277.311.88.365 1.26.112.205-.136.336-.555.34-1.077a1.48 1.48 0 0 0-.024-.325c-.044-.125-.173-.141-.543-.177l-.313-.031c-.055.032-.059.107-.059.272v.053l.001.024c.008.157.047.184.195.184.157 0 .195.04.195.205 0 .473-.373.683-.653.368-.384-.432-.297-2.08.116-2.213.173-.056.46.153.46.335 0 .069.096.107.273.107.312 0 .347-.105.157-.477a.807.807 0 0 0-.738-.481l-.048.001h.002zm-6.932.05-.086-.001c-.123 0-.245.007-.365.021l.015-.001-.471.051-.043 3.331.571-.056c.313-.032.653-.099.759-.148.321-.157.504-.488.511-.927.004-.307-.033-.439-.164-.572-.168-.171-.168-.173-.02-.421a.905.905 0 0 0 .03-.934l.002.005c-.111-.217-.351-.332-.739-.347zm8.382.099v3.347l.273.032.275.033v-.743c0-.823-.025-.792.569-.692l.293.051v.741c0 .64.019.748.137.78.347.092.337.133.315-1.603l-.021-1.657-.431-.051v1.291l-.333-.048c-.547-.077-.529-.053-.529-.749 0-.46-.027-.643-.097-.643a1.336 1.336 0 0 1-.284-.052l.01.002-.128-.036zm-9.877.043-.267.032c-.263.031-.272.045-.476.721-.113.38-.253.835-.309 1.011l-.103.32-.255-.839c-.14-.461-.283-.869-.317-.907-.033-.037-.171-.044-.304-.013l-.243.053v1.632c0 1.553.007 1.631.151 1.631a.847.847 0 0 0 .259-.042l-.006.002c.077-.031.099-.187.08-.583a8.08 8.08 0 0 1 0-.879l-.001.021c.024-.293.048-.251.331.595l.305.913.283-1.024.283-1.023.012.48a.318.318 0 0 1 .003.189l.001-.002.007.231c.019.771.04.889.143.849a.864.864 0 0 1 .271-.048h.001c.144 0 .151-.077.151-1.661zm5.723.186.331.044c.469.065.667.395.433.721-.107.147-.608.267-.707.167-.031-.032-.057-.256-.057-.496zm-1.95.034c.111.005.217.093.303.267.176.357.163 1.613-.021 1.9-.177.276-.407.276-.584 0-.101-.157-.147-.412-.163-.937-.02-.619 0-.761.14-.987.101-.167.215-.247.325-.243zm-2.676.146h.259c.313 0 .447.12.447.405 0 .253-.107.353-.451.42l-.253.049v-.437zm11.33.007a.124.124 0 0 0-.041.03v3.307l.216.033c.119.017.241.039.275.044.032.007.059-.721.059-1.62 0-.897-.027-1.647-.059-1.667a1.516 1.516 0 0 0-.264-.083l-.011-.002zm-15.972.291a.931.931 0 0 0-.189.035l.007-.002c-.24.067-.243.077-.533 1.367-.16.715-.341 1.507-.4 1.763l-.108.464.248-.053c.115-.022.215-.051.311-.088l-.012.004c.027-.016.073-.227.104-.469.06-.493.055-.485.445-.56l.284-.055.093.403c.093.395.101.401.344.355.105-.016.199-.043.288-.079l-.008.003c.04-.033-.704-3.004-.769-3.072-.013-.013-.052-.019-.104-.015zm17.028.024v1.635c0 1.256.023 1.637.099 1.639.053 0 .176.023.272.049.171.047.173.035.196-.925l.021-.973.429 1.089c.235.6.483 1.123.548 1.161.312.187.32.141.299-1.573l-.021-1.653-.216-.057-.216-.059v.891c-.003 1.023-.011 1.019-.48-.187-.344-.883-.455-1.037-.749-1.037zm-19.467.718c-.016 0-.14.04-.276.087l-.247.088v.413l.023 1.317c.011.627.027 1.127.061 1.576.015.005.032.003.053-.007.076-.031.428-.163.784-.296.608-.225.647-.253.647-.472 0-.127-.012-.232-.027-.232s-.232.072-.483.16a5.848 5.848 0 0 1-.426.145l-.056.015c-.015 0-.027-.629-.027-1.397 0-.769-.013-1.397-.027-1.397zm22.003 0c-.015 0-.027.749-.027 1.665v1.665l.253.083c.141.047.264.087.275.092.011.004.02-.743.02-1.661V3.982l-.247-.088a2.499 2.499 0 0 0-.256-.083l-.018-.004zm-14.598.275c.351.013.569.396.372.757-.084.153-.187.212-.404.231l-.292.024v-.475c0-.415.02-.48.165-.519a.53.53 0 0 1 .142-.019h.018-.001zm-5.136.004.104.429c.057.24.076.353.055.421a.063.063 0 0 1-.027.049.164.164 0 0 1-.033.026h-.001c-.188.121-.317.084-.267-.08.027-.083.075-.307.107-.499zm9.172 2.213c-.74.017-1.379.227-1.741.595-.324.329-.36.68-.091.86.34.225.897.293 2.891.357 1.824.059 2.043.08 2.36.236.389.193.559.444.547.813-.008.307-.209.636-.391.636-.305 0-1.319-.259-2.035-.52a6.449 6.449 0 0 0-.832-.263l-.049-.01-.051-.004c-.192.005-.424.161-1.091.735a7.596 7.596 0 0 1-1.156.787c-1.112.591-1.455 1.059-1.609 2.199-.084.617-.187.864-.665 1.583-.397.597-.677 1.4-.68 1.943 0 .263-.093.681-.245 1.119-.2.577-.245.836-.26 1.496-.016.685-.047.853-.217 1.172a2.61 2.61 0 0 0-.256.899c-.049.48-.089.568-.44.987-.212.251-.385.5-.385.553a.471.471 0 0 1-.084.171c-.011.051-.035.087-.065.091-.03.041-.059.078-.089.112l.001-.001c-.299.347-.445.745-.32.872.065.067.119.045.209-.085.172-.251.271-.22.192.059-.045.16-.037.248.025.276.117.052.563-.019.796-.127.123-.057.213-.204.28-.453.053-.204.152-.436.219-.515.073-.088.135-.353.155-.675.029-.469.068-.575.333-.917.173-.221.356-.583.428-.843.071-.251.183-.564.251-.696.503-.987.827-1.557.884-1.557.173 0 .312.379.312.853 0 .373.032.515.125.568.113.064.115.097.012.304a2.481 2.481 0 0 0-.166.448l-.004.018c-.076.32-.327.663-.589.8-.12.064-.381.277-.581.476-.288.285-.364.413-.363.623.001.352.115.536.247.4.157-.16.229-.113.173.113-.051.205-.043.211.211.16.324-.067.617-.257.672-.436.023-.075.072-.189.109-.255.039-.067.183-.365.323-.667.173-.373.364-.637.604-.837.192-.16.4-.417.464-.571.185-.451.724-.837.724-.517 0 .187-.304.752-.525.977-.279.284-.493.665-.493.876 0 .185.109.24.196.1.085-.141.183-.085.14.08-.003.012-.007.028-.009.044v.002c.013.04.033.073.06.1a.6.6 0 0 0 .149.013c.403 0 .783-.232.84-.513.049-.19.119-.356.208-.51l-.005.01c.099-.165.133-.323.101-.455-.053-.215.091-.769.2-.769.08 0 .365.596.437.92.042.158.114.295.21.413l-.002-.002c.144.161.207.171.911.131.729-.041.764-.053.953-.289.141-.179.208-.38.24-.729.056-.616.323-1.035.933-1.472l.456-.325.112.179c.063.097.196.385.297.639.171.421.177.491.087.853-.055.219-.076.472-.048.564.029.093-.009.341-.087.56l-.06.171-.012.075a.802.802 0 0 0-.019.175v.029-.001l.137.147c.209.229.355.257.421.083.059-.16.207-.155.207.007 0 .169.153.107.331-.133.136-.187.137-.22.021-.555-.069-.197-.108-.42-.089-.495.019-.076 0-.292-.043-.48a3.525 3.525 0 0 1 .019-1.484l-.005.024c.076-.371.067-.452-.111-.84-.108-.236-.181-.445-.164-.463.019-.019.167.02.331.085.76.304 1.353.235 1.715-.2l.184-.223a.144.144 0 0 0 .005-.037l-.439-.04a9.42 9.42 0 0 1-.346-.038l.046.005c-.265-.044-.381-.14-.805-.519-.392-.349-.405-.376-.364-.688.025-.185-.013-.589-.089-.935-.123-.563-.123-.644-.008-1.045.068-.24.124-.543.124-.671 0-.387-.211-.981-.46-1.297a2.004 2.004 0 0 1-.313-.602l-.004-.014a2.484 2.484 0 0 0-.283-.621l.006.01c-.181-.272-.187-.305-.079-.567.072-.214.114-.461.115-.717 0-.383-.033-.479-.255-.735-.48-.557-.707-.609-3-.677-2.647-.08-3.063-.181-2.652-.644.168-.189.443-.184 1.013.019.625.221 1.389.276 1.836.132.384-.124.391-.117-.275-.259-.107-.023-.196-.08-.196-.129 0-.017.011-.029.028-.039.012-.024.068-.029.173-.017.048.003.104.008.171.017 1.025.139 1.196.149 1.196.071 0-.129-.688-.396-1.407-.544-.29-.063-.622-.1-.963-.1l-.095.001h.005zm.284.655c.114.011.219.036.317.075l-.008-.003.339.123-.243.004-.032.001-.041-.003h-.022a.84.84 0 0 1-.333-.069l.005.002c-.137-.089-.107-.137.017-.131z" />
    </symbol>
    <symbol id="subaru" viewBox="0 0 32 32">
      <path
        d="M16 6.644c4.005 0 8.299.816 11.715 2.985C29.935 11.048 32 13.2 32 16.002c0 3.275-2.796 5.656-5.475 7.049-3.188 1.651-6.955 2.304-10.525 2.304-4.004 0-8.289-.807-11.707-2.984C2.074 20.951 0 18.8 0 16.003c0-3.289 2.789-5.661 5.475-7.057C8.672 7.298 12.431 6.643 16 6.643zm-.033.995c-3.724 0-7.736.697-10.967 2.644C2.968 11.499.96 13.412.96 15.954c0 2.985 2.72 5.075 5.152 6.275 3.011 1.469 6.529 2.04 9.855 2.04 3.731 0 7.745-.697 10.976-2.644 2.023-1.224 4.039-3.128 4.039-5.671 0-2.991-2.713-5.084-5.152-6.273-3.011-1.472-6.531-2.04-9.863-2.04zM1.913 13.887l6.129-1.045 1.845-4.004 1.837 4.003 6.128 1.045-6.128 1.056-1.837 4.013-1.845-4.013zm13.475 3.052 2.704-.475.807-1.812.808 1.812 2.704.475-2.704.467-.808 1.813-.807-1.813zm5.595-4.828 2.704-.467.807-1.82.808 1.819 2.704.467-2.704.476-.808 1.813-.808-1.813zm-2.89 8.569 2.693-.467.809-1.82.816 1.82 2.703.467-2.703.476-.816 1.813-.808-1.813zm-8.306.655 2.704-.467.816-1.821.807 1.821 2.704.467-2.704.476-.807 1.812-.816-1.812zm13.594-4.471 2.696-.476.807-1.812.816 1.812 2.704.476-2.704.467-.816 1.809-.808-1.809z" />
    </symbol>
    <symbol id="hummer" viewBox="0 0 32 32">
      <path
        d="M2.895 15.625H1.95v-1.306H-.001v3.416H1.95v-1.324h.945v1.324h1.951v-3.416H2.895zM8.055 16.6c0 .234-.141.503-.49.503-.344 0-.486-.269-.486-.503v-2.282H5.128v2.313c0 .344.3 1.103 1.417 1.103h2.044c1.117 0 1.417-.755 1.417-1.103v-2.313H8.055V16.6zM13.263 15.704l-.772-1.386h-2.233v3.416h1.792v-1.465l.803 1.465h.817l.803-1.465v1.465h1.792v-3.416h-2.233zM19.522 15.704l-.768-1.386h-2.238v3.416h1.796v-1.465l.803 1.465h.817l.803-1.465v1.465h1.792v-3.416h-2.233zM22.749 17.735h3.809v-.945h-1.796v-.38h1.796v-.786h-1.796v-.362h1.796v-.945h-3.809zM31.718 15.453c0-.424-.269-1.134-1.024-1.134H26.81v3.412h1.951v-.993l.834.993h2.406l-1.024-1.209c.41.018.742-.644.742-1.068zm-2.424.441h-.534v-.772h.596c.486 0 .441.772-.062.772z" />
    </symbol>
    <symbol id="volvo" viewBox="0 0 32 32">
      <path
        d="m28.832 6.4.768-.768c.544.704.992 1.472 1.472 2.272h.608V.352h-7.584V.96c.8.416 1.504.896 2.208 1.472l-.768.768C22.88 1.152 19.584 0 16 0 7.136 0 0 7.136 0 16s7.136 16 16 16 16-7.136 16-16c0-3.616-1.216-6.944-3.168-9.6zM27.68 18.88c-1.312 5.216-6.048 9.152-11.68 9.152S5.6 24.16 4.32 18.88h23.36zM4.288 13.088C5.6 7.84 10.336 3.936 15.968 3.936s10.4 3.872 11.68 9.152H4.288zm20.256 2.848c0-.544.288-1.056.768-1.056.448 0 .704.512.704 1.12 0 .544-.256 1.12-.768 1.12-.512-.064-.704-.608-.704-1.184zm-13.28 0c0-.544.288-1.056.768-1.056.448 0 .704.512.704 1.12 0 .544-.256 1.12-.768 1.12-.512-.064-.704-.608-.704-1.184zm.768-1.536c1.408 0 2.112.704 2.112 1.568s-.704 1.568-2.112 1.568-2.112-.736-2.112-1.6.704-1.536 2.112-1.536zm-4.32 2.368.992-1.856h-.608v-.448h2.048v.448H9.44L8.096 17.44h-1.6l-1.408-2.528h-.704v-.448h3.008v.448h-.704l1.024 1.856zm17.6-2.368c1.408 0 2.112.704 2.112 1.568s-.704 1.568-2.112 1.568c-1.408 0-2.112-.704-2.112-1.568s.704-1.568 2.112-1.568zm-6.912.544h-.704v-.448h3.008v.448H20l.992 1.856.992-1.856h-.544v-.448h2.048v.448h-.704l-1.344 2.528h-1.6c-.032 0-1.44-2.528-1.44-2.528zm-3.424 0h-.704v-.448h2.752v.448h-.704v2.048h.64c.608 0 .96-.416.96-.896h.448v1.408h-4.096v-.448h.704v-2.112z" />
    </symbol>
    <symbol id="mercedes" viewBox="0 0 32 32">
      <path
        d="M16.007 0c8.831 0 16 7.169 16 16s-7.169 16-16 16-16-7.169-16-16 7.169-16 16-16zM4.333 23.385c2.487 3.888 6.782 6.428 11.671 6.428h.002c4.908 0 9.223-2.565 11.673-6.428l-11.673-4.448-11.673 4.448zm14.218-8.854 9.689 7.887c.995-1.855 1.58-4.058 1.58-6.397V16v.001c0-7.436-5.889-13.508-13.253-13.803l1.984 12.333zM15.447 2.197C8.083 2.492 2.194 8.564 2.194 16c0 2.316.571 4.499 1.58 6.417l9.689-7.887 1.984-12.333z" />
    </symbol>
    <symbol id="bmw" viewBox="0 0 32 32">
      <path
        d="M16 0C7.164 0 0 7.164 0 16s7.164 16 16 16 16-7.164 16-16S24.836 0 16 0zm0 1.04c8.261 0 14.959 6.697 14.959 14.96 0 8.261-6.696 14.959-14.959 14.959S1.041 24.262 1.041 16 7.738 1.04 16 1.04zm-.904.84c-.44.019-.88.056-1.323.104l-.143 3.925a11.4 11.4 0 0 1 .892-.121l.055-.004.093-2.651-.017-.183.057.173.885 1.985h.808l.885-1.984.053-.175-.013.183.093 2.651c.309.029.631.072.947.125l-.145-3.925a17.72 17.72 0 0 0-1.279-.102l-.043-.002-.871 2.167-.031.16-.031-.16-.873-2.167zm8.928 2.432-2.057 3.237c.26.2.603.495.823.696l1.937-1.005.123-.092-.092.125-1.003 1.937c.217.233.531.611.707.84l3.24-2.059a21.84 21.84 0 0 0-.638-.788l.025.03-2.052 1.352-.14.123.104-.153.907-1.808-.64-.64-1.808.907-.153.104.121-.141 1.357-2.052a20.44 20.44 0 0 0-.76-.613zm-16.691.735c-.48.049-.851.377-1.857 1.5-.319.36-.649.756-.967 1.163l-.042.056 2.765 2.623C8.148 9.376 8.52 9 9.243 8.238c.511-.54.8-1.16.288-1.756-.277-.323-.744-.393-1.133-.233l-.037.013.013-.035a.931.931 0 0 0-.322-.977l-.002-.002a.96.96 0 0 0-.721-.199h.005zm.008.82c.181-.049.369.08.411.267.043.187-.075.363-.205.509-.293.333-1.375 1.464-1.375 1.464l-.536-.511c.556-.68 1.148-1.299 1.416-1.544a.738.738 0 0 1 .284-.184l.005-.002zM16 6.511h-.004c-4.898 0-8.928 3.712-9.432 8.476l-.004.041v.003a9.496 9.496 0 0 0 11.416 10.252l-.062.011c4.353-.918 7.573-4.727 7.573-9.288v-.005c-.005-5.238-4.25-9.482-9.488-9.487v-.003zm-7.383.322a.33.33 0 0 1 .187.057.327.327 0 0 1 .141.347c-.035.159-.167.308-.273.424L7.279 9.154l-.56-.533s1.049-1.109 1.393-1.465c.136-.141.224-.227.317-.273a.42.42 0 0 1 .186-.049h.001zM16 7.757h.009a8.233 8.233 0 0 1 8.233 8.233V16h-8.243v8.243h-.009a8.233 8.233 0 0 1-8.233-8.233V16v.001H16V7.758z" />
    </symbol>
  </defs>
</svg>