<svg aria-hidden="true" style="position:absolute;width:0;height:0;overflow:hidden" xmlns="http://www.w3.org/2000/svg">
  <defs>
    <symbol id="icon-prev" viewBox="0 0 32 32">
      <path
        d="M20.992 27.264 9.408 17.12q-.512-.448-.512-1.12t.512-1.12L20.992 4.736q.416-.32.896-.288t.832.368.352.88v20.608q0 .544-.352.88t-.832.368-.896-.288z" />
    </symbol>
    <symbol id="icon-next" viewBox="0 0 32 32">
      <path
        d="M11.008 4.736 22.592 14.88q.512.448.512 1.12t-.512 1.12L11.008 27.264q-.416.32-.896.288t-.832-.368-.352-.88V5.696q0-.544.352-.88t.832-.368.896.288z" />
    </symbol>
    <symbol id="icon-tesla" viewBox="0 0 32 32">
      <path
        d="m16 31.8 4.44-24.97c4.23 0 5.57.47 5.76 2.36 0 0 2.84-1.06 4.27-3.21-5.59-2.59-11.2-2.71-11.2-2.71l-3.28 3.99H16l-3.28-3.99s-5.61.12-11.2 2.71c1.43 2.15 4.27 3.21 4.27 3.21.2-1.89 1.53-2.36 5.73-2.36L16 31.8z" />
      <path
        d="M16 2.12c4.52-.04 9.68.7 14.98 3.01.71-1.27.89-1.84.89-1.84A43.556 43.556 0 0 0 16 .2C10.56.23 5.18 1.28.13 3.29c.26.63.55 1.24.89 1.84C6.31 2.82 11.48 2.09 16 2.12z" />
    </symbol>
    <symbol id="icon-pontiac" viewBox="0 0 32 32">
      <path
        d="M16.043 3.777 7.51 0s8.541 31.791 8.499 31.965L24.584.037l-8.541 3.74zM8.558 1.173l7.51 3.282 7.51-3.245-7.544 27.675c.034-.147-7.476-27.712-7.476-27.712z" />
      <path
        d="M16.068 5.207 9.359 2.31s6.709 24.347 6.675 24.476l6.743-24.448-6.709 2.869zm-.059 6.417-.571-2.182-3.12-.559 3.18-.486.46-2.008.563 2.044 3.29.467-3.35.495-.452 2.228z" />
    </symbol>
    <symbol id="icon-kia" viewBox="0 0 32 32">
      <path
        d="M28.486 10.979c-3.825-1.93-8.137-2.771-12.407-2.771-4.306 0-8.795.672-12.605 2.771-1.597.884-3.372 2.432-3.372 4.404 0 1.951 1.746 3.57 3.359 4.383 3.831 1.937 8.151 2.771 12.428 2.771 4.305 0 8.795-.672 12.604-2.764 1.583-.869 3.365-2.41 3.365-4.376 0-1.972-1.732-3.598-3.372-4.419zm-18.133 8.122-2.602-3.132h-.078v3.132H5.651v-6.984h-.445v-.467h2.468v2.623h.078l2.135-2.623h2.276l-2.828 3.478 3.281 3.973h-2.262zm6.475 0h-2.021v-6.956h-.438v-.516h2.46V19.1zm7.82 0-1.661-4.87-1.668 4.87h-2.205l2.424-6.985h-.396v-.46h3.118l2.538 7.444h-2.15z" />
    </symbol>
    <symbol id="icon-lincoln" viewBox="0 0 32 32">
      <path
        d="M18.94 15.044v-.313.313zM18.94 14.698v-.097.097zM18.94 14.525v-.054.054zM12.898 14.892v.292-.292zM12.888 14.428v.27-.27zM12.898 16.816v.292-.292zM12.888 17.302v.27-.27zM18.94 16.946v.313-.313zM18.94 17.302v.097-.097zM18.94 17.464v.054-.054zM20.204 15.281c-.043-5.857-.573-12.45-1.459-14.514L15.914.075l-2.831.692c-.886 2.064-1.416 8.646-1.459 14.503l-1.232.097v1.243l1.232.097c.043 5.857.573 12.45 1.459 14.503l2.831.692 2.831-.692c.886-2.064 1.416-8.646 1.459-14.514l1.2-.097v-1.243l-1.2-.076zm-6.247 14.277c-.8-3.437-.962-9.11-1.027-12.785l2.01.151.357 12.634h-1.34zm.984-14.482-2.01.151c.065-3.674.227-9.348 1.027-12.785h1.329l-.346 12.634zm2.929 14.482h-1.362l.357-12.634 2.032-.151c-.065 3.674-.216 9.348-1.027 12.785zm-1.005-14.482-.357-12.634h1.362c.8 3.437.962 9.11 1.027 12.785l-2.032-.151z" />
    </symbol>
    <symbol id="icon-mini" viewBox="0 0 32 32">
      <path
        d="M30.995 13.2 32 12.185H21.938c-1.251-1.99-3.436-3.313-5.928-3.313s-4.677 1.323-5.928 3.313H0L1.005 13.2h8.544a6.79 6.79 0 0 0-.38 1.19H2.174l1.005 1.015h5.836a5.51 5.51 0 0 0 0 1.19H4.348l1.005 1.015h3.815a6.3 6.3 0 0 0 .4 1.221c0-.01-.01-.02-.01-.031H6.522l1.005 1.015h2.554c1.251 1.99 3.436 3.313 5.928 3.313s4.677-1.323 5.928-3.313h2.533l1.005-1.015H22.47c0 .01-.01.02-.01.031.164-.39.297-.8.4-1.221h3.795l1.005-1.015h-4.636a5.777 5.777 0 0 0 0-1.19h5.795l1.005-1.015H22.85a7.641 7.641 0 0 0-.38-1.19h8.523zm-8.903-.759c0-.01-.01-.01-.01-.021 0 .01.01.01.01.021zm.144.267c0-.01-.01-.021-.01-.031 0 .01.01.021.01.031zm-12.431-.031c-.01.01-.01.021-.01.031 0-.01 0-.021.01-.031zm.133-.256c0 .01-.01.01-.01.021 0-.01.01-.01.01-.021zm-.01 7.138c0 .01.01.01.01.02 0 0-.01-.01-.01-.02zm-.143-.267c.01.01.01.02.021.031-.01-.01-.021-.02-.021-.031zm6.225 2.821c-3.323 0-6.021-2.738-6.021-6.113s2.697-6.113 6.021-6.113 6.02 2.738 6.02 6.113-2.697 6.113-6.02 6.113zm6.216-2.78c.01-.01.01-.02.02-.031-.01 0-.02.01-.02.031zm-.144.246c0-.01.01-.01.01-.02 0 .01-.01.02-.01.02z" />
      <path
        d="M11.785 17.61h-.626v-3.251h.933l.81 2.595.81-2.595h.933V17.6h-.646v-2.4l-.749 2.4h-.697l-.769-2.421v2.431zM16.031 17.61h-.667v-3.251h.667v3.251zM17.395 17.61h-.636v-3.251h.779l1.272 2.349v-2.349h.636V17.6h-.779l-1.272-2.338v2.349zM20.831 17.61h-.667v-3.251h.667v3.251z" />
    </symbol>
    <symbol id="icon-nissan" viewBox="0 0 32 32">
      <path
        d="m27.435 19.94-.013.037c-1.663 4.857-6.247 8.115-11.415 8.115s-9.76-3.264-11.416-8.12l-.013-.039H.947v.439l1.511.177c.933.107 1.129.52 1.384 1.04l.064.128c2.184 4.66 6.939 7.669 12.107 7.669 5.169 0 9.924-3.009 12.108-7.663l.064-.127c.253-.52.451-.933 1.384-1.041l1.512-.179v-.437zM4.591 12.016c1.663-4.857 6.248-8.12 11.416-8.12s9.759 3.263 11.416 8.12l.013.037h3.637v-.437l-1.512-.177c-.933-.108-1.129-.52-1.384-1.041l-.063-.128c-2.184-4.647-6.941-7.656-12.108-7.656-5.175 0-9.924 3.009-12.108 7.669l-.064.127c-.253.52-.451.933-1.384 1.041l-1.511.177v.439h3.632zm18.482 2.115-2.324 3.727h1.003l.413-.667h2.711l.413.667h.996l-2.324-3.727zm1.378 2.354h-1.86l.933-1.499zm3.746-1.421 2.761 2.793h1.041V14.13h-.819v2.78l-2.749-2.78h-1.06v3.727h.825zM0 17.857h.825v-2.793l2.768 2.793h1.041V14.13h-.825v2.78L1.06 14.13H0zm6.457-3.726h.825v3.727h-.827zm5.982 2.938c-.027.007-.128.007-.165.007H8.991v.763h3.333c.025 0 .223 0 .26-.007.68-.064.991-.629.991-1.124 0-.508-.324-1.053-.94-1.111-.12-.013-.221-.013-.267-.013h-2.177l-.036.001a1.13 1.13 0 0 1-.212-.02l.007.001c-.172-.045-.235-.197-.235-.324 0-.115.063-.267.24-.317a.91.91 0 0 1 .232-.019h-.002 3.143v-.749h-3.193a1.95 1.95 0 0 0-.317.019c-.525.066-.927.51-.927 1.048v.027-.001c0 .457.285.991.913 1.08.115.012.273.012.344.012h2.12c.039 0 .133 0 .152.007.241.031.324.209.324.368v.008a.35.35 0 0 1-.302.346h-.002zm6.209 0c-.027.007-.128.007-.172.007H15.2v.763h3.333c.025 0 .223 0 .26-.007.68-.064.991-.629.991-1.124 0-.508-.324-1.053-.94-1.111-.12-.013-.221-.013-.267-.013H16.4l-.036.001a1.13 1.13 0 0 1-.212-.02l.007.001c-.172-.045-.235-.197-.235-.324 0-.115.063-.267.24-.317a.91.91 0 0 1 .232-.019h-.002 3.143v-.749h-3.193a1.95 1.95 0 0 0-.317.019c-.525.066-.927.51-.927 1.048v.027-.001c0 .457.285.991.915 1.08.113.012.272.012.343.012h2.12c.039 0 .133 0 .152.007.241.031.324.209.324.368v.002a.356.356 0 0 1-.302.352h-.002z" />
    </symbol>
    <symbol id="icon-audi" viewBox="0 0 32 32">
      <path
        d="M31.639 14.892a5.473 5.473 0 0 0-1.499-2.784 5.48 5.48 0 0 0-3.892-1.611 5.546 5.546 0 0 0-2.142.432 5.632 5.632 0 0 0-1.26.744 5.311 5.311 0 0 0-1.26-.744 5.546 5.546 0 0 0-2.142-.432 5.546 5.546 0 0 0-2.142.432 5.632 5.632 0 0 0-1.28.758 5.311 5.311 0 0 0-1.277-.758 5.546 5.546 0 0 0-2.142-.432 5.546 5.546 0 0 0-2.142.432 5.632 5.632 0 0 0-1.274.755 5.46 5.46 0 0 0-3.416-1.187 5.546 5.546 0 0 0-2.142.432 5.48 5.48 0 0 0-1.75 1.179 5.48 5.48 0 0 0-.673.815 6.23 6.23 0 0 0-.495.935A5.546 5.546 0 0 0 .279 16a5.546 5.546 0 0 0 .432 2.139c.137.325.309.64.506.935.197.29.424.566.673.815A5.48 5.48 0 0 0 5.782 21.5a5.546 5.546 0 0 0 2.142-.432 5.632 5.632 0 0 0 1.274-.755 5.46 5.46 0 0 0 3.413 1.187 5.546 5.546 0 0 0 2.142-.432 5.632 5.632 0 0 0 1.28-.758 5.311 5.311 0 0 0 1.28.758 5.546 5.546 0 0 0 2.142.432 5.546 5.546 0 0 0 2.142-.432 5.632 5.632 0 0 0 1.26-.744 5.311 5.311 0 0 0 1.26.744 5.546 5.546 0 0 0 2.139.432 5.546 5.546 0 0 0 2.142-.432 5.48 5.48 0 0 0 1.75-1.179 5.48 5.48 0 0 0 1.611-3.892 6.301 6.301 0 0 0-.12-1.105zM3.381 12.444a4.27 4.27 0 0 1 2.396-.734 4.3 4.3 0 0 1 1.668.337 4.143 4.143 0 0 1 .876.501c-.098.12-.191.246-.276.375-.2.295-.369.607-.506.935A5.546 5.546 0 0 0 7.107 16a5.546 5.546 0 0 0 .432 2.139c.137.325.309.64.506.935.088.129.181.254.279.375a4.388 4.388 0 0 1-.878.504 4.27 4.27 0 0 1-1.668.337 4.3 4.3 0 0 1-1.668-.337 4.215 4.215 0 0 1-.728-.397 4.29 4.29 0 0 1-1.157-1.157 4.27 4.27 0 0 1-.734-2.396 4.3 4.3 0 0 1 .337-1.668c.107-.254.241-.501.397-.728.153-.227.331-.44.522-.635.194-.197.408-.375.635-.528zm5.672 5.955a4.27 4.27 0 0 1-.734-2.396 4.3 4.3 0 0 1 .337-1.668c.107-.254.241-.501.397-.728.044-.066.093-.131.142-.197a4.388 4.388 0 0 1 .539.925 4.27 4.27 0 0 1 .337 1.668 4.3 4.3 0 0 1-.337 1.668c-.107.254-.241.5-.397.728-.044.066-.093.131-.142.197a2.818 2.818 0 0 1-.142-.197zm1.288.678c.2-.295.369-.607.506-.935a5.546 5.546 0 0 0 0-4.284 5.632 5.632 0 0 0-.506-.935 5.692 5.692 0 0 0-.279-.375 4.388 4.388 0 0 1 .876-.501 4.27 4.27 0 0 1 1.668-.337 4.3 4.3 0 0 1 1.668.337c.254.107.501.241.728.397.052.036.104.071.153.109a5.311 5.311 0 0 0-.78 1.304 5.546 5.546 0 0 0-.432 2.142 5.546 5.546 0 0 0 .432 2.139 5.342 5.342 0 0 0 .782 1.307c-.052.038-.101.074-.156.109a4.27 4.27 0 0 1-2.396.734 4.3 4.3 0 0 1-1.668-.337 4.215 4.215 0 0 1-.728-.397c-.049-.033-.101-.068-.148-.107a4.94 4.94 0 0 0 .279-.372zm5.55-.678a4.27 4.27 0 0 1-.734-2.396 4.3 4.3 0 0 1 .337-1.668 4.107 4.107 0 0 1 .534-.919 4.388 4.388 0 0 1 .534.919 4.27 4.27 0 0 1 .337 1.668 4.3 4.3 0 0 1-.337 1.668 4.143 4.143 0 0 1-.534.919c-.046-.063-.093-.126-.137-.191zm1.28.678c.2-.295.369-.607.506-.935a5.546 5.546 0 0 0 0-4.284 5.632 5.632 0 0 0-.779-1.307 4.388 4.388 0 0 1 .881-.506 4.27 4.27 0 0 1 1.668-.337 4.3 4.3 0 0 1 1.668.337 4.143 4.143 0 0 1 .857.487 5.311 5.311 0 0 0-.793 1.323 5.546 5.546 0 0 0-.432 2.142 5.546 5.546 0 0 0 .432 2.139c.137.325.309.64.506.935.09.134.186.263.29.388-.044.033-.088.063-.131.093a4.27 4.27 0 0 1-2.396.734 4.3 4.3 0 0 1-1.668-.337 4.215 4.215 0 0 1-.728-.397c-.052-.036-.104-.071-.153-.109a5.27 5.27 0 0 0 .273-.366zm5.522-.678a4.27 4.27 0 0 1-.734-2.396 4.3 4.3 0 0 1 .337-1.668 4.107 4.107 0 0 1 .553-.944 4.388 4.388 0 0 1 .553.944 4.27 4.27 0 0 1 .337 1.668 4.3 4.3 0 0 1-.337 1.668 4.143 4.143 0 0 1-.553.944 3.576 3.576 0 0 1-.156-.216zm1.315.678c.2-.295.369-.607.506-.935a5.546 5.546 0 0 0 0-4.284 5.632 5.632 0 0 0-.793-1.323c.044-.03.088-.063.131-.093a4.27 4.27 0 0 1 2.396-.734 4.3 4.3 0 0 1 1.668.337 4.362 4.362 0 0 1 1.885 1.557 4.27 4.27 0 0 1 .734 2.396 4.3 4.3 0 0 1-.337 1.668c-.107.254-.241.5-.397.728-.153.227-.331.44-.522.635s-.408.369-.635.522a4.27 4.27 0 0 1-2.396.734 4.3 4.3 0 0 1-1.668-.337 4.215 4.215 0 0 1-.859-.49c.101-.118.197-.246.287-.38z" />
    </symbol>
    <symbol id="icon-bentley" viewBox="0 0 32 32">
      <path fill="#4d4d4d" style="fill:var(--color1, #4d4d4d)"
        d="M12.095 13.902c.036-.42.564-.895.492-1.324-.063-.34-.483-.626-.904-.689a23.238 23.238 0 0 0-1.217-.107 37.277 37.277 0 0 0-.975-.018c-.179 0-.653-.009-.796-.009s-.313-.009-.546-.045c-.233-.036-.394-.089-.617-.152a5.336 5.336 0 0 0-1.137-.25 11.555 11.555 0 0 0-.689-.045h-.984c-.179 0-.751.027-.895.027h-.376c-.072 0-.054.036-.089.045-.036.009-.206 0-.304 0s-.17 0-.206-.009h-.08s-.009.036.027.045a.875.875 0 0 0 .152.018c.027 0 .259.018.34.027.08 0 .224 0 .313.009s.251.009.358.009h.68c.152.009.447.009.59.009.143.009.483.018.751.054s.483.063.751.125c.259.063.564.161.707.206.152.045.358.098.456.125.107.027.206.027.233.054.027.018.027.045.009.081s-.027.045-.045.081a.123.123 0 0 1-.027.054h-.098s.018-.018.018-.036-.054-.054-.116-.063c-.063-.009-.331-.036-.403-.045s-.34-.036-.483-.036h-.859c-.143.009-.68-.009-.814 0s-.608 0-.734 0H3.37c-.143 0-.626-.018-.716-.009-.089 0-.358-.009-.492-.009s-.59-.018-.707-.018c-.125 0-.277-.009-.322-.027s-.304-.152-.412-.197l-.358-.179c-.054-.027-.107-.063-.125-.072-.018-.009-.089.063-.107.089s-.054 0-.054 0 .251-.277.304-.34c.054-.063.116-.143.143-.152s.134-.009.206 0c.063.009.492.045.573.054s.438.018.537.027c.098 0 .546.009.698.009s.626.018.76.009c.143-.009.537-.045.653-.054.125-.009.501-.036.68-.036.179-.009.546 0 .662-.009s.582-.009.734-.009c.161 0 .608.018.76.027.152 0 .805.036.975.045s1.02.036 1.208.045c.188.009.465.018.617.009s.859-.045 1.074-.045c.215-.009.787-.018 1.011-.009.233.009.787.063.975.081.188.027.376.072.42.072.054 0 .134.009.17.036.027.027.054.089.116.125.054.036.134.045.161.081s.027.116.045.143c.018.036.081.134.089.206s0 .197-.045.268c-.045.081-.125.17-.206.259s-.215.179-.322.277c-.116.098-.304.242-.403.376s-.161.224-.179.358c-.018.134-.009.215-.018.242s-.027.081-.063.116c-.036.036-.17.197-.224.259a1.59 1.59 0 0 0-.188.287l-.036-.054s.072-.081.081-.107c.036-.054.027-.152.045-.313z" />
      <path fill="#4d4d4d" style="fill:var(--color1, #4d4d4d)"
        d="m1.02 12.319.018-.081h.304c.071 0 .492.018.644.018.152 0 .608.018.725.009.107-.009.734.009.868.009s.787 0 .921.009c.134 0 .877.009.993.009h1.772c.143 0 .492.009.573 0 .08 0 .143-.009.152-.018.018 0 .063-.027.098-.009a.169.169 0 0 1 .054.063c.018.018.045.036.054.054a.295.295 0 0 1 .072.054c.018.027.018.027.054.054s.036.036.027.054c-.009.018-.063.072-.081.107s-.027.063-.036.072c-.009.009-.081.018-.081.018s.045-.027.036-.054c-.009-.027-.054-.089-.152-.098s-.34.018-.456.027c-.107.009-.832.072-.966.089-.125.009-1.136.081-1.306.098s-.966.063-1.118.072c-.152.009-.751.045-.93.054-.188.009-.608.027-.769.036s-.483.018-.546.009a.467.467 0 0 1-.179-.054c-.045-.018-.295-.134-.376-.17-.072-.036-.197-.081-.224-.116-.027-.027-.009-.081-.009-.116s0-.081-.045-.116c-.036-.036-.089-.081-.089-.081zM1.825 13.312v-.072s.107 0 .161-.009.286-.009.429-.018c.152-.009.743-.036.921-.045a44.624 44.624 0 0 0 1.19-.072c.161-.009 1.261-.089 1.422-.098.152-.018 1.074-.089 1.217-.098s.626-.063.796-.072c.17-.018.197-.036.224-.036s.045-.018.072.018a.49.49 0 0 0 .116.116c.036.027.143.089.143.125s-.027.081-.045.107c-.018.036-.018.098-.018.098l-.107.018s.009-.027.009-.045-.018-.063-.063-.081c-.045-.018-.125-.036-.197-.018s-.42.072-.555.098c-.143.027-.948.161-1.145.188-.197.036-.975.152-1.154.179-.188.027-.904.116-1.154.143s-.555.054-.725.063c-.17.009-.34.027-.465.009s-.394-.098-.51-.125c-.116-.027-.295-.081-.322-.107s-.045-.063-.054-.098c-.009-.036-.063-.116-.098-.125-.027-.009-.089-.045-.089-.045zM2.836 14.117s.045.009.098 0 .089-.027.152-.036c.063 0 .233-.009.331-.018.098 0 .385-.036.483-.045s.582-.054.734-.081c.152-.018 1.002-.143 1.145-.161s.85-.125 1.047-.161c.197-.036.841-.152 1.011-.179.17-.036.367-.063.438-.081s.125-.054.17-.036c.045.009.081.045.134.072s.134.054.179.063c.045.018.081.036.089.054s0 .081-.018.107c-.018.036-.027.054-.036.089s-.009.063-.009.063l-.098.036s.018-.045 0-.072-.072-.063-.098-.063a.44.44 0 0 0-.125.027c-.045.018-.662.197-.76.233l-.734.206c-.089.027-.671.17-.832.206s-.769.161-.921.188c-.152.027-.725.098-.868.107s-.17.018-.286.009c-.116-.009-.34-.036-.474-.054-.143-.018-.286-.054-.34-.063s-.098-.018-.125-.081c-.027-.063-.018-.107-.063-.152a.35.35 0 0 0-.116-.098c-.036-.018-.08-.018-.089-.027-.027-.018-.018-.054-.018-.054zM4.061 14.949s.412-.045.51-.054c.089-.018.734-.107.886-.134.152-.036.814-.179.93-.206s.841-.215.984-.251c.143-.036.626-.179.76-.215.134-.045.519-.161.555-.179.045-.018.089-.054.134-.045s.17.045.215.054c.045.018.161.036.188.054.018.018.027.036.027.072v.215c0 .018.045.054.045.054l-.107.045c-.027.009-.072.027-.072.027s.009-.045.009-.063a.188.188 0 0 0-.089-.054c-.018-.009-.036 0-.089.018l-.233.098c-.063.026-.429.17-.537.215-.107.045-.555.215-.698.259-.143.054-.787.268-.904.304s-.537.152-.644.179c-.098.027-.152.045-.233.054a7.169 7.169 0 0 1-1.092-.134.255.255 0 0 1-.116-.072c-.027-.036-.054-.063-.107-.089s-.107-.054-.152-.072c-.045-.018-.063-.027-.089-.036s-.054-.018-.072-.027c-.009 0-.009-.018-.009-.018zM5.779 15.665s.134-.036.17-.054.259-.081.322-.098c.072-.018.313-.081.412-.116s.582-.197.68-.233c.089-.036.662-.251.778-.286.116-.045.743-.304.841-.34.089-.036.179-.072.215-.098.036-.018.134-.072.179-.081s.143-.027.188-.027c.045 0 .072 0 .089.018s.027.045.027.081c0 .036.009.116.045.152a.673.673 0 0 0 .313.099h.036s-.125.081-.161.089l-.17.081s-.009-.036-.027-.045-.081-.009-.125 0c-.054 0-.098.027-.143.054s-.483.259-.573.304c-.089.045-.76.394-.85.438l-.59.286c-.072.036-.116.063-.179.063-.063.009-.215.009-.349.009s-.403-.009-.483-.009a.877.877 0 0 1-.268-.036c-.063-.027-.072-.063-.107-.107s-.116-.089-.152-.098c-.036-.009-.089-.018-.107-.009-.009.018-.009-.036-.009-.036zM7.336 16.219s.519-.259.599-.295.859-.429.957-.492c.098-.054.671-.367.796-.438s.295-.161.322-.179c.027-.018.045-.045.081-.054s.054-.018.054-.018.045.063.072.098c.027.036.089.098.161.107s.098.009.143.009c.045 0 .116-.018.116-.018s-.188.179-.224.206c-.036.027-.447.367-.528.438s-.385.304-.456.367c-.072.054-.286.215-.331.242s-.17.072-.242.089c-.072.018-.42.089-.546.116s-.394.072-.447.072c-.054 0-.125 0-.17-.045s-.072-.116-.134-.152c-.063-.027-.098-.045-.143-.045-.072.018-.08-.009-.08-.009zM8.857 16.523s.286-.206.349-.259.313-.25.385-.304c.072-.054.367-.295.465-.376.089-.072.367-.304.438-.376.072-.063.215-.197.215-.197s.009.054.036.072c.027.018.063.063.116.089.063.027.143.027.197.027.063 0 .116-.009.143-.009s.063.009.063.054c0 .036.009.063.009.081s.009.036.009.036l-.42.465a19.21 19.21 0 0 1-.394.42c-.072.081-.268.286-.286.304-.027.018-.089 0-.134-.018-.054-.036-.098-.009-.161.009s-.179.054-.251.072c-.063.018-.251.054-.295.054s-.098 0-.134-.036c-.027-.036-.098-.098-.134-.116s-.072-.027-.089-.018c-.045.018-.116.054-.125.027zM10.234 16.613s.277-.286.331-.349c.063-.063.394-.42.465-.501s.188-.224.224-.259c.027-.036.054-.063.063-.063.018 0 .089 0 .152-.018.063-.009.152-.036.179-.027s.027.027.027.045.009.215.009.277 0 .206-.009.251c-.018.054-.161.34-.197.42s-.134.259-.143.295c-.018.036-.018.045-.036.054-.009.009-.036-.027-.072-.072-.054-.063-.098-.054-.152-.036s-.349.089-.403.098c-.054.009-.143.036-.188.027s-.072-.045-.089-.081c-.027-.036-.054-.063-.081-.063-.054.009-.081 0-.081 0zM11.567 16.407s.072-.161.081-.188c.018-.027.036-.081.036-.081s.018.081.036.125c.018.036.054.081.072.125.009.036.081.206.089.233s.036.072.027.098c-.009.027 0 .045.009.072s.018.045 0 .054c-.027.009-.072.045-.089.054s-.054.009-.081-.027c-.018-.018-.072-.027-.116-.063s-.045-.063-.036-.098c0-.036.027-.17.009-.206-.009-.036-.036-.098-.036-.098zM10.181 16.962s.081.107.143.107c.054 0 .072-.018.098-.027s.072-.009.089 0c.018.009.054.045.045.081 0 .036.018.107.045.161.027.063.143.304.215.412.072.116.268.394.349.501.089.098.367.412.438.474s.438.376.573.465c.134.089.447.295.635.385.188.098.429.206.492.233s.098.027.116.045c.009.018.036.036.036.036l-.072.116-.063.098-.054-.027s.036-.036.027-.063c-.018-.027-.027-.054-.072-.081s-.233-.098-.313-.143a11.098 11.098 0 0 1-.573-.313 8.643 8.643 0 0 1-.59-.42 5.643 5.643 0 0 1-.573-.555c-.107-.116-.331-.412-.403-.519s-.259-.456-.304-.546c-.045-.089-.063-.152-.098-.188s-.054-.045-.063-.045c-.018 0-.054-.009-.054-.009s-.009-.027-.036-.089c-.018-.036-.036-.089-.036-.089z" />
      <path fill="#4d4d4d" style="fill:var(--color1, #4d4d4d)"
        d="M10.574 17.033s.081 0 .143-.027.233-.072.295-.089c.072-.018.152-.054.179-.063.036-.009.063-.018.081-.018s.036.018.054.045c.027.036.054.098.081.125.036.027.081.072.143.063s.125-.018.179-.036c.054-.027.152-.089.17-.098s.054-.036.063-.027c.009.009.027.036.045.036s.036.027.045.045c.009.018.152.224.233.322.081.089.188.215.268.295.081.072.304.268.394.331a4.52 4.52 0 0 0 .841.483c.116.045.233.098.268.107.036.018.045.036.063.054.027.018.036.045.027.063-.009.027-.134.215-.179.304-.054.098-.152.25-.188.313-.036.072-.143.233-.17.286s-.107.179-.116.197c0 .009-.027.009-.036 0s.027-.045.027-.089c0-.045-.027-.107-.054-.134s-.098-.063-.143-.081c-.045-.018-.242-.116-.34-.17s-.304-.17-.438-.259-.313-.206-.42-.295c-.116-.089-.277-.233-.376-.331s-.268-.286-.376-.42a4.079 4.079 0 0 1-.313-.447c-.072-.134-.152-.295-.17-.322-.027-.027-.063-.072-.116-.089s-.081-.027-.107-.027c-.027 0-.063 0-.072-.018.018-.018.018-.027.018-.027zM8.257 12.023H9.34c.036 0 .089.018.107.018l.036.009s.018.045 0 .054c-.018.018-.027.063-.045.089-.009.027 0 .054-.018.063s-.089.018-.089.018.009-.036-.009-.045c-.018-.009-.072-.036-.116-.027-.045 0-.259.027-.331.027-.072.009-.259.036-.304.036-.036.009-.081 0-.107-.009s-.134-.054-.161-.081c-.027-.027-.045-.036-.054-.036l-.045-.009.018-.054.036-.054zM8.382 12.632s.045-.063.054-.072c.018-.009.116-.045.161-.054s.233-.054.322-.081c.089-.018.251-.054.331-.072s.152-.045.17-.045c.027 0 .063.009.089.027l.098.072c.027.018.054.054.045.072s-.018.036-.036.054c-.018.018-.009.027-.018.045s-.009.054-.009.054-.072.018-.081.027c-.009 0-.027.009-.027.009s.018-.045.009-.054c-.018-.009-.063-.045-.116-.054-.054 0-.197.036-.242.054s-.224.063-.295.081c-.072.018-.134.054-.188.045s-.098-.027-.152-.054c-.045-.027-.063-.036-.072-.045-.009.009-.045-.009-.045-.009zM8.57 13.115s0-.036.027-.054c.018-.018.072-.027.098-.045s.107-.045.197-.072c.089-.036.259-.081.322-.098.072-.018.224-.072.259-.081.036-.018.089-.045.125-.045s.107.018.152.036.081.036.089.063-.009.072-.027.089c-.018.027-.018.045-.027.063s-.009.054-.009.054-.027.018-.054.027l-.045.009s0-.036-.018-.054c-.018-.027-.081-.045-.116-.036s-.188.072-.242.098a9.353 9.353 0 0 1-.277.125c-.054.027-.089.045-.152.036-.054-.009-.107-.018-.152-.036s-.098-.054-.125-.054c.009-.027-.027-.027-.027-.027zM8.928 13.509l.197-.089c.063-.036.313-.143.394-.179s.206-.098.233-.107c.027-.009.054-.036.089-.036s.107.018.143.027c.045.009.098.018.107.045.018.027.018.081.018.089-.009.018-.027.072-.018.089a.76.76 0 0 0 .009.072l-.063.036a.49.49 0 0 1-.072.036s-.009-.036-.036-.054c-.027-.027-.072-.036-.107-.027-.027.009-.17.089-.233.125a5.428 5.428 0 0 1-.215.134c-.027.018-.045.045-.107.036-.072-.009-.098-.018-.134-.036s-.107-.063-.125-.081c-.018-.018-.089-.036-.089-.054 0-.027.009-.027.009-.027zM9.286 13.983s.197-.125.277-.179.286-.17.367-.215c.081-.045.161-.098.197-.107.045-.009.143 0 .197 0s.089 0 .089.027a.096.096 0 0 1-.009.072v.089l-.394.313c-.063.054-.215.188-.224.188s-.063-.036-.125-.063c-.063-.027-.098-.027-.125-.036s-.063-.027-.098-.045c-.036-.018-.054-.027-.081-.027s-.081.018-.081.018l.009-.036zM9.76 14.323s.098-.089.17-.152.277-.224.331-.277c.054-.045.197-.152.215-.17s.045-.018.072-.018c.027 0 .089-.018.116-.018s.072 0 .081.036c.009.036.027.107.018.134 0 .027 0 .063.009.072.009.018.018.027.018.027l-.063.063c-.036.036-.161.152-.206.197-.054.054-.161.152-.197.197s-.098.098-.098.098-.018-.063-.054-.089c-.036-.027-.116-.045-.17-.045s-.116-.054-.143-.054c-.027-.009-.054.009-.054.009s-.036.018-.045-.009zM10.261 14.618l.268-.268c.054-.054.224-.215.268-.259s.072-.081.116-.098c.045-.018.098-.045.125-.036s.045.045.054.081c.009.036.045.089.107.107s.098.027.134.027c.027 0 .045-.009.045-.009l-.098.098c-.036.036-.134.134-.197.188s-.215.206-.259.251c-.045.045-.107.089-.107.089s0-.045-.036-.072c-.045-.045-.098-.036-.152-.036s-.081-.009-.116-.036c-.027-.027-.054-.054-.072-.054s-.054.018-.063.018c.027.009-.018.009-.018.009zM10.798 14.859s.152-.143.224-.215.215-.206.277-.268l.17-.17s.027.036.072.036c.054.009.107.018.143.018s.107 0 .125-.018c.018-.018.045-.027.045-.027s-.036.045-.072.098c-.036.054-.152.206-.206.295-.063.089-.197.295-.224.331s-.072.125-.089.143l-.036.054s.009-.045-.036-.107c-.036-.063-.054-.063-.089-.072s-.045.009-.089-.018c-.045-.027-.072-.072-.098-.081s-.027-.009-.054 0c-.045.009-.063 0-.063 0zM11.898 14.323l.036.054c.018.027.045.045.036.063 0 .018-.089.179-.107.224s-.081.242-.089.295c-.018.054-.036.143-.054.188s-.036.063-.036.081l-.009.054s-.036.027-.054.027l-.054.018v-.045c0-.018-.027-.054-.045-.081-.018-.036-.036-.072-.018-.134s.045-.134.072-.188c.027-.054.036-.107.072-.188s.063-.152.107-.215c.045-.063.063-.098.081-.125.036-.018.063-.027.063-.027zM9.59 12.05s.179-.009.304-.009c.134 0 .295 0 .385.018.089.009.233.018.286.018s.134-.009.268-.009c.134.009.367.009.528.036s.304.054.429.098c.125.045.367.143.438.233s.125.161.116.277c-.009.116-.054.233-.089.304s-.125.224-.143.251c-.018.027-.152.152-.206.215s-.233.251-.304.34c-.072.081-.125.152-.152.179-.036.036-.054.063-.054.063h-.027s.027-.036.018-.072-.036-.098-.072-.116c-.036-.018-.045-.027-.063-.018-.027.009-.045.018-.054.018-.018 0-.027.009-.027.009s.081-.089.116-.125c.036-.036.134-.134.17-.161.036-.036.063-.054.081-.054s.072.018.107 0c.036-.018.107-.089.116-.143 0-.054-.018-.098-.054-.125s-.081-.045-.116-.045a.233.233 0 0 0-.107.027c-.018.009-.045.018-.045.018s0-.027.009-.063c.009-.036-.018-.081-.036-.107-.018-.036-.063-.054-.107-.063-.054-.009-.072.009-.089-.009s-.009-.045-.018-.081c-.018-.036-.045-.089-.089-.107s-.089-.027-.107-.027c-.027 0-.027-.018-.027-.045 0-.036-.009-.116-.036-.143-.027-.018-.072-.063-.107-.063-.036-.009-.054-.009-.054-.027s.018-.054.018-.089a.156.156 0 0 0-.054-.125c-.045-.027-.089-.045-.107-.072s-.054-.063-.063-.063H10.5c-.027 0-.089.018-.143.027-.045.009-.072.018-.098.009s-.081-.027-.116-.027c-.036 0-.125.009-.188.009-.063.009-.116.018-.17.009-.045 0-.081-.018-.125-.036l-.072-.036a.266.266 0 0 1-.036-.027s0-.018.009-.036a.168.168 0 0 1 .027-.036z" />
      <path fill="#4d4d4d" style="fill:var(--color1, #4d4d4d)"
        d="M9.706 12.471s.125-.054.215-.081.259-.072.331-.089c.072-.018.134-.036.161-.027s.063.009.089.009h.045s.018.018.009.027-.009.018-.036.045c-.027.027-.045.054-.072.072-.027.009-.098.027-.179.045s-.197.063-.242.072c-.045.009-.054.027-.125.009-.072-.009-.089-.018-.116-.027s-.036 0-.045.009c-.018.009-.027 0-.027 0v-.036c-.018-.009-.009-.027-.009-.027zM9.921 12.793s.125-.063.224-.107c.107-.045.313-.116.358-.134.045-.009.089-.027.116-.009s.045.027.036.054a.28.28 0 0 1-.063.081c-.027.018-.17.089-.224.116s-.179.089-.215.089c-.036 0-.072-.009-.116-.018-.036-.009-.054-.018-.072-.018h-.054s.009-.009.009-.027v-.027zM10.154 13.142l.179-.107c.045-.026.197-.098.259-.134.063-.036.134-.063.17-.063s.072.018.072.036 0 .054-.018.089c-.018.027-.027.054-.081.098-.054.054-.098.081-.134.107s-.089.072-.116.081a.252.252 0 0 1-.089-.027c-.027 0-.089-.036-.107-.045s-.045-.018-.063-.018c-.018 0-.081.018-.081.018l.009-.036zM10.521 13.437l.143-.125c.054-.045.161-.116.215-.152s.089-.063.107-.063c.018 0 .036 0 .045.018.009.009.045.009.054.036s0 .054.009.063c.009.018.036.009.036.027.009.009 0 .045 0 .045s-.116.089-.152.125c-.045.036-.107.098-.125.107s-.072-.027-.116-.045a.488.488 0 0 0-.152-.045c-.045.009-.063.009-.063.009zM10.843 13.652s.098-.089.143-.134.098-.089.134-.125c.036-.036.116-.089.116-.089s.036 0 .027.027c-.009.018.018.027.036.027s.054-.009.063 0c.009 0 .027.009.027.036s0 .045.009.054c.009 0 .036 0 .036.009s.009.027.009.027l-.179.179-.152.152a.13.13 0 0 0-.018.027s-.018-.054-.063-.089c-.045-.045-.063-.054-.107-.063-.045-.036-.081-.036-.081-.036zM11.585 13.974s.072-.089.143-.161l.161-.17c.027-.027.045-.054.045-.054s-.045.098-.054.152c-.009.045-.018.134-.018.17s-.018.081-.027.125c-.009.045-.009.089-.009.089l-.054.027c-.027.009-.054.027-.054.027s0-.072-.036-.107c-.027-.036-.036-.045-.063-.063s-.063-.018-.063-.018l.027-.018zM13.258 11.308s.125-.045.215-.081c.081-.036.501-.179.626-.215.161-.045.528-.125.743-.161a7.67 7.67 0 0 1 1.091-.081 6.68 6.68 0 0 1 1.566.179c.143.036.394.098.528.143s.349.116.429.152c.081.036.134.045.152.063.009.009.018.036.063.054l.107.045-.054.036c-.036.018-.081.036-.116.054l-.072.036s0-.045-.018-.063a.929.929 0 0 0-.233-.107 8.417 8.417 0 0 0-1.011-.286 7.27 7.27 0 0 0-1.333-.126 8.24 8.24 0 0 0-.814.054c-.197.027-.528.072-.716.125-.188.045-.447.107-.546.143s-.224.081-.259.089c-.036 0-.125-.009-.152-.009h-.072c-.018 0-.063.027-.081.018a.094.094 0 0 0-.045-.063z" />
      <path fill="#4d4d4d" style="fill:var(--color1, #4d4d4d)"
        d="M19.511 13.92s-.045-.054-.072-.081-.036-.152-.063-.224c-.027-.072-.134-.215-.197-.277s-.179-.188-.42-.34c-.224-.143-.456-.268-.707-.367s-.42-.161-.725-.233c-.295-.063-.689-.134-1.109-.152s-.787.018-1.029.054c-.242.036-.59.098-.912.206s-.403.143-.501.197c-.098.045-.34.17-.429.233s-.233.161-.313.215c-.089.054-.107.098-.152.089-.072-.018-.098-.089-.098-.089s.063-.081.125-.143c.063-.063.206-.188.295-.259s.268-.224.295-.259c.027-.027.107-.125.107-.125s.027.054.072.045a.435.435 0 0 0 .161-.134c.045-.072.116-.233.098-.358-.018-.134-.036-.233-.072-.251-.036-.027-.098-.072-.143-.072-.045-.009-.063 0-.081-.009-.027-.009-.054-.036-.054-.036s.107-.045.161-.063c.045-.018.259-.098.403-.134s.295-.081.483-.116c.179-.036.447-.081.662-.098s.492-.045.653-.036c.161 0 .546.027.698.045s.456.054.635.098c.179.045.519.125.662.179.152.054.322.107.349.125a.391.391 0 0 0 .063.054c.027.009.054.027.054.027s-.072.081-.125.17c-.143.251.027.564.259.734.304.224.85.564.948 1.074.027.098.018.313.018.313z" />
      <path fill="#4d4d4d" style="fill:var(--color1, #4d4d4d)"
        d="M19.717 13.652c-.018-.179-.125-.358-.206-.474s-.134-.242-.224-.394c-.089-.152-.349-.304-.51-.42-.125-.089-.286-.286-.286-.438 0-.072-.036-.188-.125-.134a.355.355 0 0 1 .098-.107c.081-.072.233-.17.385-.215.143-.054.492-.143.626-.179a7.73 7.73 0 0 1 .707-.116c.161-.009.447-.027.59-.027.152 0 .429.018.644.036.224.027.528.072.734.081.197.009.546.018.698.018.152-.009.429-.018.581-.018s.698-.018.886-.036c.179-.009.68-.045.859-.054.188-.009.751-.018.913-.018s.859.036 1.038.045c.179.009.617.036.778.045s.394.018.528.027c.134.009.537 0 .617 0 .089 0 .394 0 .555-.009.17-.009.608-.045.769-.054.161-.018.581-.054.707-.063.134-.009.268-.027.322-.018s.125.054.143.072c.018.018.098.107.152.17s.116.134.125.152c.009.027.045.072.036.089s-.018.054-.036.063l-.116.054s-.009-.045-.036-.054c-.036-.018-.089-.036-.125-.018-.045.018-.17.072-.25.107s-.206.089-.268.098c-.063.009-.295.018-.447.018s-.608.009-.805.009c-.197.009-.859.009-1.002.018-.143 0-.751.009-.939.009-.197 0-.734.009-.913.009s-.957.009-1.127.009c-.17 0-.653 0-.787.009-.134 0-.304.009-.474.018s-.403.036-.474.045a.873.873 0 0 1-.188-.018c-.036-.009-.036-.018-.054-.018s-.081-.009-.081-.009l-.009-.027s.072-.018.134-.027c.063-.018.116-.045.224-.063.107-.027.385-.072.519-.098s.751-.134.93-.152c.179-.027.644-.072.805-.089.161-.009.626-.045.787-.054s.528-.027.617-.027c.089 0 .403.009.528.018s.188.009.188.009l.027-.081-.242-.018c-.108-.009-.394-.009-.492-.009-.098 0-.438 0-.573.009-.125.009-.313-.018-.465-.018-.179-.009-.59 0-.76.009a19.8 19.8 0 0 0-1.7.215c-.242.045-.608.116-.778.152s-.394.081-.59.098c-.197.018-.599.027-.743.027s-.581-.009-.796-.009c-.215 0-.581 0-.796.027s-.394.063-.501.107c-.107.036-.224.081-.295.134s-.107.116-.107.134c0 .018.009.036.009.036l.054.018s-.054.045-.089.072-.063.089-.081.143l-.036.242c0 .054-.009.081.009.125s.107.197.143.268c.036.063.125.215.152.259s.072.107.107.161c.036.054.089.179.098.215a.864.864 0 0 1 .009.161v.295c0 .045-.009.089-.018.098s-.036.036-.036.063c0 .027-.018.081-.027.107s-.027.089-.027.089-.036-.072-.036-.081c0-.009.018-.072.009-.152-.009-.143-.143-.42-.17-.698z" />
      <path fill="#4d4d4d" style="fill:var(--color1, #4d4d4d)"
        d="M19.637 12.426s.036-.054.134-.125c.081-.054.215-.116.295-.143s.385-.089.519-.107c.134-.009.501-.018.626-.018s.349.009.429 0h.554c.044 0 .143-.009.17 0 .027.009.081.018.081.036.009.018.009.036 0 .063-.018.027-.009.054-.009.063v.018l-.036.018c-.018.009-.089.054-.089.054s0-.018-.018-.045-.054-.054-.089-.063-.152-.018-.197-.018c-.054 0-.17-.009-.215-.009s-.072-.009-.089-.009c-.027 0-.045 0-.063.018s-.027.027-.036.027h-.045c-.009 0-.027.009.009.045.045.045.107.045.161.054s.134.027.197.036c.063.009.143.027.188.036.054.009.098.009.116.018.018 0 .054.018.045.036 0 .018-.009.036-.018.054s-.009.045 0 .063c0 .018 0 .027-.018.036s-.072.027-.081.036c-.009.009-.036 0-.036 0s.009-.036 0-.045c-.009-.009-.027-.027-.072-.045s-.161-.045-.215-.054c-.054-.009-.152-.036-.206-.045-.063-.009-.098-.027-.116-.018l-.036.036c-.009 0-.027-.009-.045 0-.009.009-.027.027-.018.036.009.018.054.036.089.054.045.018.179.054.233.072.063.018.161.063.215.072s.116.027.125.063c.009.027.009.063-.009.081s-.027.045-.027.054c-.009.009-.009.045-.009.045s-.054.036-.063.036l-.054.018s.018-.027 0-.063-.063-.063-.116-.089c-.063-.027-.179-.072-.224-.089s-.197-.072-.224-.089c-.036-.009-.072-.027-.107-.018s-.045.027-.036.045c.009.018.036.027.036.045s0 .036-.009.036-.009.009-.009.009.081.054.134.081c.054.027.179.098.215.116s.143.072.17.089c.027.018.081.045.072.072s-.018.063-.027.081c-.009.018.009.027-.018.036l-.107.036s0-.018-.009-.036c-.009-.009-.018-.036-.063-.063s-.206-.125-.25-.143a.808.808 0 0 1-.17-.098c-.027-.018-.081-.072-.098-.081s-.063-.036-.089 0c-.018.018-.036.063-.018.081l.045.045s-.027.018-.027.036c.009.009.081.063.134.098s.197.134.233.161c.036.027.116.072.143.098s.036.045.009.063c-.018.018-.027.045-.027.045v.063s-.009.009-.045.018c-.027.009-.072.009-.072.009s-.009-.018-.009-.036-.018-.036-.045-.063c-.036-.036-.152-.107-.206-.152-.054-.036-.161-.107-.188-.134s-.072-.089-.098-.116c-.027-.018-.063-.045-.089-.036s-.063.036-.063.063c0 .027-.009.045.009.063s.045.027.045.036c0 .009-.027.018-.027.036.009.018.098.089.143.125s.188.152.224.188c.036.036.107.098.116.125s.009.081-.009.098c-.009.018-.045.027-.072.027-.027.009-.072.009-.072.009s.018-.036.009-.045c-.009-.018-.072-.054-.116-.089s-.188-.161-.242-.206a.445.445 0 0 1-.125-.143c-.018-.036-.054-.089-.098-.089s-.089.009-.116.045c-.027.036-.027.072-.009.089s.054.036.045.045l-.045.027s.045.027.098.072c.063.054.17.143.215.179s.125.116.143.134c.018.018.036.054.036.081s-.009.072-.018.081c-.009.018 0 .027-.018.036-.027.009-.063.009-.081.009s-.027-.009-.027-.009.036-.027.036-.045a.547.547 0 0 0-.081-.089c-.036-.027-.188-.161-.242-.215s-.134-.134-.161-.188c-.018-.054-.018-.116-.045-.152-.027-.045-.098-.089-.125-.134s-.125-.197-.17-.286c-.045-.089-.089-.161-.107-.242-.009-.081 0-.125-.018-.152s-.045-.063-.063-.063c-.009.009-.063 0-.063 0zM20.003 13.562s.125.143.161.17.098.072.116.081c.018.009.098.089.116.116s.072.072.072.098c0 .027-.027.107-.045.125s-.045.045-.072.045c-.018 0-.063-.009-.063-.009s.054-.009.054-.036c0-.018-.009-.036-.045-.072s-.054-.054-.089-.098l-.072-.107-.027.009h-.027s-.009-.089-.018-.134-.027-.089-.036-.107c-.018-.027-.027-.081-.027-.081zM19.985 14.6s.036-.072.036-.107c0-.027.018-.081.027-.098l.009-.036s.063.081.081.098c.018.027.081.072.098.107.027.036.125.161.17.224s.17.224.188.259c.027.036.089.134.089.161s-.009.063-.018.089c-.018.027-.027.054-.045.063-.018 0-.081.009-.081.009s.018-.027.018-.045-.027-.063-.072-.089-.125-.063-.143-.089c-.018-.018-.072-.17-.098-.224-.036-.063-.089-.17-.125-.215s-.054-.098-.072-.098c-.018 0-.009.009-.027.009l-.036-.018zM20.093 14.26s.081.027.134.027h.098c.009-.009.036-.045.081-.054s.089 0 .143.027c.045.036.277.259.304.295.036.036.179.179.233.215.045.045.116.116.134.143s.018.054.009.072c-.009.018-.027.027-.036.045s-.009.063-.027.081c-.009.018-.027.027-.063.027h-.063s.036-.018.036-.045-.009-.054-.045-.072-.063-.036-.116-.063a.436.436 0 0 1-.116-.098c-.036-.036-.116-.143-.152-.188s-.134-.161-.179-.206c-.045-.045-.089-.081-.143-.089s-.072-.018-.081-.018c-.009 0-.036.036-.027.045l-.045-.045c-.027-.018-.081-.098-.081-.098zM20.531 14.153s.009-.018.009-.036c0-.027.009-.054.018-.054s.072.027.107.027c.036 0 .045-.009.045-.009s.018-.036.072-.045c.045-.009.063-.009.081-.009s.036-.009.089.018c.054.018.188.134.242.179s.268.206.322.259c.063.045.125.089.143.107s.081.072.063.098c-.018.027-.045.054-.054.081s-.009.063-.009.081a.043.043 0 0 1-.054.018h-.063s.027-.018.036-.036c.009-.018-.009-.036-.036-.054s-.063-.045-.116-.072a3.126 3.126 0 0 1-.429-.358.958.958 0 0 0-.17-.134c-.027-.009-.107-.027-.134-.036s-.072-.018-.072-.018-.018.027-.027.027h-.018l-.018-.018c-.018 0-.027-.018-.027-.018z" />
      <path fill="#4d4d4d" style="fill:var(--color1, #4d4d4d)"
        d="M20.907 13.92v-.045s.027-.009.072-.009c.036 0 .072 0 .116-.018s.045-.009.072-.027l.072-.045c.027-.018.027-.045.045-.045s.072-.009.089 0 .134.107.197.143l.349.215c.081.045.197.107.233.143s.063.054.063.081c0 .036-.027.054-.045.081s-.009.045-.018.072c-.009.018-.018.045-.018.045l-.098.018s.027-.027.018-.045c0-.027-.018-.054-.063-.072-.045-.027-.098-.027-.143-.045s-.125-.072-.17-.107c-.045-.036-.17-.125-.224-.17-.054-.036-.143-.107-.179-.125-.045-.018-.116-.036-.161-.036h-.107c-.009 0-.027.045-.045.036-.018-.018-.027-.018-.045-.036-.009 0-.009-.009-.009-.009zM21.479 13.607s.063-.009.072-.036.009-.089.009-.116c.009-.027 0-.045.018-.045.009 0 .045.018.072.018s.063 0 .116.027c.045.027.25.134.358.179s.322.161.385.179c.063.027.179.063.188.098.018.027.027.063.009.089s-.036.045-.027.063c.009.018.027.045.009.054s-.054.018-.081.027c-.027.009-.054.009-.054.009s.027-.018.018-.045c-.009-.027-.027-.063-.072-.072l-.143-.027a.432.432 0 0 1-.152-.072c-.063-.036-.197-.116-.268-.152s-.197-.107-.25-.134c-.045-.027-.063-.045-.081-.054-.027-.009-.054-.009-.072 0 0 .018-.054.009-.054.009zM21.864 13.24l.018-.081c.009-.045 0-.063.009-.063.018-.009.036.009.063 0 .027 0 .063 0 .081.009s.125.054.17.072c.054.018.313.116.394.143.089.036.242.089.313.116s.116.036.143.054c.027.027.045.054.045.098s.009.063-.009.081c-.018.027-.027.027-.027.045 0 .009.018.036 0 .054-.009.018-.027.018-.072.027s-.063.009-.063.009.036-.036 0-.063c-.036-.027-.045-.045-.116-.072s-.188-.072-.242-.098c-.054-.018-.277-.125-.34-.143-.063-.027-.197-.072-.242-.098s-.063-.036-.081-.054c0-.036-.045-.036-.045-.036zM22.15 12.855s0-.107.009-.116c.018-.009.063.009.081.009s.081 0 .134.009c.054.018.34.089.456.107.116.027.268.063.367.081s.161.018.179.054c.018.036.018.107.018.143s.009.125 0 .134c-.009.009-.054.036-.089.045s-.045.018-.045.018.018-.045-.009-.072c-.018-.027-.107-.063-.17-.081s-.233-.072-.322-.098c-.089-.027-.25-.081-.304-.089-.054-.018-.116-.027-.152-.054s-.072-.063-.089-.072c-.027-.009-.063-.018-.063-.018zM22.356 12.444v-.045s.054-.054.063-.054c.018 0 .054-.009.107 0s.304.036.394.054c.098.018.349.054.42.063s.188 0 .224.009c.063.018.054.072.054.107s.009.098.009.116c0 .018-.036.045-.072.072s-.072.045-.089.063c-.018.009.009-.045-.018-.072-.018-.018-.054-.036-.107-.045s-.152-.036-.206-.045c-.054-.009-.268-.054-.349-.072s-.179-.027-.242-.054c-.054-.027-.089-.072-.125-.089-.027 0-.063-.009-.063-.009zM22.526 12.149s-.018-.045-.018-.054v-.027s.089.009.161-.009c.063-.009.25-.045.376-.063.116-.018.349-.063.42-.072s.17-.027.197-.018c.036.018.054.045.063.081l.036.134c.009.027.036.072.027.089 0 .018-.045.063-.072.089s-.098.089-.098.089.009-.054-.009-.081c-.018-.036-.063-.072-.116-.089s-.268-.036-.34-.027h-.349a.527.527 0 0 1-.206-.036c-.036-.018-.027-.009-.045-.018-.009-.009-.027.009-.027.009zM23.752 12.39s.089-.098.107-.125c.027-.027.045-.063.063-.063s.072 0 .107-.009c.045-.018.358-.018.438-.018h.769c.125 0 .93-.009 1.056-.009h.859c.152-.009.868 0 1.038-.009s1.065-.009 1.208-.018c.152 0 .841-.018.966-.018s.376-.009.447-.009c.081-.009.152-.018.179-.009s.036.036.045.054c.009.018.054.161.072.215.018.063.036.143.036.179s.018.089.009.098a1.124 1.124 0 0 1-.107.063c-.018 0-.036.009-.036.009s.018-.027.009-.054c-.009-.018-.063-.054-.089-.063s-.072 0-.134.027c-.063.027-.233.072-.331.089s-.143.036-.304.036h-.716c-.161-.009-.653-.018-.886-.036-.233-.009-.805-.045-1.002-.054s-.814-.045-.957-.054l-1.011-.063a29.67 29.67 0 0 1-1.011-.072c-.125-.009-.385-.027-.456-.036-.081 0-.188-.018-.233-.027s-.045-.027-.072-.036c-.018.009-.063.009-.063.009zM23.448 12.963s.107-.063.152-.098.098-.072.107-.098c.009-.036.009-.054.009-.054s.322.009.394.018c.072.009.429.027.519.036s.662.045.841.063c.179.009.975.063 1.136.072l.957.054c.161.009.769.036.966.045s.895.027 1.011.027c.116 0 .51.009.573 0 .072 0 .152-.009.197-.009s.098 0 .098.054c0 .045-.009.251-.027.313s-.063.179-.098.206c-.036.027-.089.054-.089.054s.018-.045.009-.072c-.018-.027-.063-.063-.098-.063s-.242.054-.34.063c-.098.009-.268.027-.394.027s-.412-.018-.564-.027c-.143-.009-.546-.045-.743-.063s-.743-.081-.993-.107c-.25-.027-.76-.089-.93-.116-.179-.027-.76-.098-.913-.125s-.573-.081-.68-.098a17.082 17.082 0 0 0-.573-.081c-.107-.009-.17-.027-.215-.027h-.287c-.009.009-.027.009-.027.009zM23.179 13.473s.089-.027.134-.054.125-.045.152-.081c.027-.036.027-.045.027-.072s-.009-.045-.009-.045.152.009.206.018c.063.009.349.045.429.063.089.009.528.081.644.098s.921.125 1.082.152c.161.018.85.107.975.125s.904.098 1.02.107c.125.009.555.054.707.063s.474.027.608.036c.143 0 .242 0 .277.009s.063.036.054.063c-.009.027-.036.242-.054.286s-.036.125-.054.161c-.018.027-.036.063-.072.081s-.045.027-.045.027.027-.045.009-.072a.261.261 0 0 0-.089-.081c-.027 0-.143.018-.215.027s-.215.027-.304.036a3.625 3.625 0 0 1-.268.018c-.063 0-.17-.018-.268-.027-.098-.018-.456-.063-.59-.081-.125-.018-.546-.089-.725-.125s-.796-.161-.921-.188c-.125-.027-.581-.125-.698-.152s-.626-.143-.743-.179c-.116-.027-.438-.107-.528-.125s-.268-.063-.313-.072c-.045-.009-.098-.027-.143-.009-.045.009-.125.036-.152.045s-.036.018-.072.009a.321.321 0 0 1-.063-.063z" />
      <path fill="#4d4d4d" style="fill:var(--color1, #4d4d4d)"
        d="M22.786 13.911s.081-.009.125-.018c.036-.009.134-.027.179-.045s.063-.018.063-.045-.009-.081 0-.107l.018-.054.134.027c.036 0 .17.027.224.045s.68.17.778.197c.098.027.814.197.939.224l.832.179c.134.027.993.188 1.136.206.143.027.635.098.751.116.116.009.286.027.322.036s.063.027.063.063c-.009.054-.054.17-.081.224s-.072.152-.116.206c-.045.054-.081.098-.116.116s-.045.027-.045.027.027-.045.018-.072c-.009-.027-.045-.063-.089-.072s-.134 0-.215 0a4.4 4.4 0 0 1-.581-.045c-.224-.036-.581-.089-.814-.143s-.573-.134-.814-.206c-.242-.072-.635-.179-.886-.268-.25-.081-.564-.188-.707-.242s-.546-.197-.608-.215c-.063-.027-.107-.036-.152-.036s-.107.009-.161 0c-.054-.009-.107-.027-.134-.036s-.045-.018-.063-.036c-.009-.009 0-.027 0-.027zM22.311 14.314s.152-.036.233-.063c.063-.027.152-.063.224-.054s.233.063.322.089c.089.036.403.143.492.179.081.036.814.277.93.313s.743.224.877.259c.134.036.743.188.886.224.143.027.385.072.456.089.072.009.143.036.143.063.009.036 0 .089-.009.116l-.054.17a.452.452 0 0 1-.081.161c-.027.036-.098.045-.098.045s.036-.027.027-.054c-.009-.036-.018-.054-.045-.072s-.045-.036-.081-.036c-.036 0-.143.009-.215.009-.081.009-.349.009-.447.009-.107 0-.206.009-.286 0s-.17-.027-.295-.063c-.125-.036-.42-.143-.555-.197s-.528-.224-.635-.277c-.107-.045-.501-.242-.626-.304s-.313-.161-.412-.215a7.783 7.783 0 0 0-.376-.197.621.621 0 0 0-.17-.054c-.045-.009-.116-.036-.134-.045s-.072-.027-.072-.027v-.072zM21.81 14.663s.161-.036.206-.054.134-.036.161-.027c.036.009.152.063.224.098s.385.206.483.259c.098.054.51.268.608.313.089.045.394.197.51.242.107.045.492.215.599.259.098.045.259.098.349.134s.206.063.259.081c.054.018.152.045.161.063.009.027.009.063-.009.098s-.063.161-.081.197c-.018.036-.054.116-.081.143s-.045.045-.063.045h-.018s.036-.045.036-.054c0-.018-.018-.072-.045-.089s-.063-.036-.089-.036c-.027 0-.125 0-.215-.009s-.233-.027-.34-.054c-.107-.027-.179-.036-.268-.072s-.286-.143-.385-.197a10.903 10.903 0 0 1-.528-.331c-.098-.063-.564-.403-.635-.447-.072-.054-.242-.17-.304-.224-.072-.054-.17-.134-.206-.152s-.152-.063-.197-.072c-.036-.018-.081-.027-.089-.054-.054-.027-.045-.063-.045-.063zM21.309 14.958s.089.009.125 0 .116-.036.143-.036c.027 0 .072-.009.116.009s.161.089.224.134c.063.045.304.242.385.295s.447.322.528.376c.072.054.412.277.51.331.089.054.259.161.34.206s.17.089.197.116c.027.027.054.054.036.107-.027.054-.098.17-.116.197s-.072.081-.089.098c-.027.018-.036.027-.036.027s.036-.045.036-.072c-.009-.027-.027-.072-.072-.098s-.134-.036-.206-.054c-.072-.018-.322-.081-.42-.107s-.179-.054-.242-.098c-.063-.045-.224-.197-.304-.268s-.242-.224-.34-.313a15.925 15.925 0 0 1-.349-.331 4.906 4.906 0 0 1-.286-.268l-.134-.134c-.027-.027-.045-.018-.054-.045-.018-.018-.009-.054 0-.063 0 .009.009-.009.009-.009zM20.737 15.342l.018-.072c.009-.027.009-.036.009-.036h.143c.063-.009.098-.027.152-.018s.081.018.107.072a.83.83 0 0 0 .17.197c.054.054.331.313.42.394.081.081.349.331.447.42.089.081.224.197.259.233l.134.134c.018.027.009.072-.009.098-.018.036-.063.107-.098.134s-.098.081-.098.081.027-.054.018-.072c-.009-.027-.054-.072-.089-.081l-.259-.072c-.072-.018-.215-.081-.259-.116s-.224-.25-.259-.295c-.045-.054-.197-.259-.25-.322-.054-.072-.179-.242-.242-.322s-.17-.224-.197-.251c-.027-.027-.036-.045-.054-.063a.579.579 0 0 1-.063-.045zM20.182 15.414s.098.018.161.018c.054 0 .107-.009.134 0s.054 0 .081.036c.027.027.036.081.054.116.009.027.197.286.224.331s.161.215.215.286c.054.072.215.277.259.331.045.063.134.152.161.188s.081.116.089.134c.009.018-.009.045-.027.063s-.045.054-.072.081c-.027.027-.072.054-.081.063-.009 0 .009-.036.009-.054s-.009-.045-.045-.072c-.045-.036-.116-.063-.17-.081s-.161-.054-.233-.081a.344.344 0 0 1-.134-.081 1.69 1.69 0 0 1-.152-.259c-.045-.081-.17-.313-.206-.385-.036-.063-.045-.107-.054-.143s-.009-.179-.018-.215a.596.596 0 0 0-.081-.125c-.027-.018-.036-.027-.045-.027a.187.187 0 0 0-.054-.018v-.063c-.018-.027-.018-.045-.018-.045zM20.146 16.166s.063.107.089.143.081.116.116.17c.027.063.125.206.143.259.027.054.054.098.054.152-.009.054-.045.116-.063.143s-.018.054-.045.081c-.036.027-.081.036-.081.036s.036-.036.036-.063c0-.027-.027-.072-.036-.089a.996.996 0 0 0-.089-.081c-.045-.018-.125-.063-.134-.089s-.009-.054.009-.098a.273.273 0 0 0 .009-.188c-.009-.054-.018-.072-.027-.089s-.027-.027-.027-.027.036-.116.036-.143l.009-.116z" />
      <path fill="#4d4d4d" style="fill:var(--color1, #4d4d4d)"
        d="M17.713 18.59s.152-.054.224-.089.206-.089.295-.134c.089-.045.34-.179.438-.242.107-.063.242-.161.349-.25s.286-.25.358-.322c.072-.072.242-.268.286-.34.054-.072.134-.206.134-.206l.188.098c.081.045.17.081.233.089s.098.018.161.009.081-.018.116-.054.072-.098.081-.134c.018-.036.036-.081.036-.081s.072.036.116.054l.224.081c.063.018.143.036.179.063s.045.045.045.072c0 .027-.027.089-.054.134s-.107.233-.143.286c-.036.063-.17.286-.242.385s-.295.385-.385.465c-.081.081-.188.188-.25.215-.063.036-.161.054-.224.089l-.349.215c-.089.054-.224.134-.313.179l-.394.197c-.072.036-.17.072-.215.098-.045.018-.081.036-.116.036s-.063-.027-.081-.054c-.018-.027-.125-.224-.17-.295s-.197-.34-.224-.394c-.036-.054-.045-.072-.116-.098-.045-.018-.063-.027-.081-.027-.027 0-.036 0-.072-.009-.018-.009-.036-.036-.036-.036zM17.194 18.742l.188-.054c.063-.018.134-.045.17-.054.045-.009.063-.009.081.009.027.027.045.063.054.098s.143.25.179.331c.045.072.161.286.197.349s.17.277.197.322c.027.045.063.107.081.143a.582.582 0 0 1 .072.152c.018.036.027.063.018.089s-.089.161-.098.197c-.018.036-.089.161-.089.161s-.009-.107-.027-.152c-.018-.054-.036-.081-.072-.107s-.107-.045-.134-.063c-.027-.018-.054-.036-.089-.107s-.125-.313-.161-.394c-.036-.089-.152-.376-.188-.474s-.098-.259-.134-.295c-.027-.036-.107-.098-.134-.098s-.063-.009-.072-.009a.204.204 0 0 0-.036.009v-.054z" />
      <path fill="#4d4d4d" style="fill:var(--color1, #4d4d4d)"
        d="M21.283 17.176s.054.009.081-.009.089-.063.134-.107c.045-.045.089-.098.107-.125s.027-.036.027-.036.027.009.027.027-.045.17-.063.206c-.018.036-.063.17-.089.233-.036.072-.134.268-.17.331s-.206.331-.268.42c-.072.089-.277.349-.34.42s-.313.313-.376.376-.51.358-.599.403c-.089.054-.376.215-.438.259-.063.036-.268.134-.331.17-.072.036-.25.116-.286.125-.045.009-.089 0-.134 0-.036-.009-.054-.009-.072-.009s-.063.009-.063.009l-.018-.036s.17-.063.25-.107.447-.215.546-.268c.098-.063.313-.179.429-.25.107-.072.376-.268.465-.349.098-.081.367-.349.42-.412.045-.063.268-.259.313-.313.054-.054.143-.134.206-.224.063-.098.215-.331.242-.403s.063-.125.054-.152c-.009-.027-.009-.054-.018-.063a.574.574 0 0 1-.063-.018l.018-.063c0-.027.009-.036.009-.036zM16.702 18.831s.054 0 .098-.018.161-.063.206-.063c.045-.009.116-.009.125.018a23.25 23.25 0 0 0 .233.608c.036.089.179.456.206.528s.098.242.107.277c.009.036.045.125.036.152s-.063.116-.089.161c-.036.045-.143.197-.143.197s-.009-.063.009-.081c.009-.018.027-.054.018-.081-.009-.018-.036-.081-.063-.116-.036-.027-.098-.054-.134-.081-.036-.036-.054-.045-.072-.143-.027-.098-.089-.367-.107-.447l-.125-.537c-.018-.072-.036-.179-.072-.215-.027-.036-.089-.089-.116-.098s-.054 0-.063 0h-.027l-.027-.063zM16.228 18.876s.089-.009.125-.018.125-.027.179-.027c.054 0 .107.018.116.045.009.036.027.134.027.179.009.045.107.465.116.528s.125.51.134.581c.009.063.054.224.045.259v.081c-.009.009-.072.098-.107.134s-.152.188-.152.188-.009-.045.009-.063c.018-.018.054-.054.045-.081-.009-.036-.036-.098-.063-.125s-.098-.063-.125-.089c-.027-.036-.045-.054-.054-.134-.009-.072-.036-.474-.045-.599-.009-.134-.036-.492-.045-.546s-.018-.107-.054-.143c-.036-.036-.072-.054-.098-.063s-.045-.009-.045-.009l-.009-.098zM15.736 18.885s.089 0 .107-.009.107-.018.17-.018c.063 0 .134.018.134.054s.009.143.009.215c0 .072.027.42.036.483 0 .054.036.447.036.546.009.098.018.277.018.313v.081l-.143.143c-.036.027-.161.134-.161.134s.018-.054.036-.072c.018-.027.036-.063.018-.081-.018-.027-.107-.125-.134-.143s-.072-.072-.072-.116a4.021 4.021 0 0 1 .036-.501c.009-.134.036-.429.045-.537s.018-.224 0-.268c-.018-.045-.054-.098-.081-.107s-.072-.018-.072-.018l.018-.098zM15.244 18.849h.098c.035 0 .063-.009.116-.009.054 0 .089 0 .134.009.036.018.072.036.063.098s-.018.286-.027.358c-.009.063-.045.528-.045.564s-.018.242-.018.313c0 .054-.027.179-.027.224-.009.045-.027.125-.027.134s-.009.027-.009.027-.081.072-.116.081c-.027.018-.027-.018-.045-.036s-.045-.018-.089-.045a.408.408 0 0 1-.143-.134c-.027-.045-.036-.089-.018-.17.018-.072.081-.34.107-.429.018-.089.081-.349.098-.447.018-.089.054-.233.054-.286s-.018-.098-.045-.125c-.027-.027-.036-.027-.054-.036s-.036-.009-.036-.009l.027-.081zM14.752 18.769s.063.009.098.009.089-.009.152.009.134.027.143.054.027.054.009.116a29.36 29.36 0 0 0-.143.581c-.018.072-.098.429-.116.492s-.063.259-.072.304c-.018.045-.045.134-.045.143s-.072.045-.089.054l-.036.018s.027-.036.018-.063c-.009-.027-.036-.045-.072-.045s-.072.027-.098.018a.145.145 0 0 1-.098-.098c-.036-.072-.036-.089-.027-.143s.152-.394.179-.474c.027-.081.161-.412.188-.492a.969.969 0 0 0 .072-.215c0-.036-.027-.081-.045-.098s-.036-.027-.045-.027c-.009 0-.018-.009-.018-.009l.045-.134zM14.26 18.635s.045.018.098.018a.366.366 0 0 1 .295.107c.009.027-.018.089-.045.161-.036.072-.179.465-.215.546s-.188.465-.206.519a3.29 3.29 0 0 1-.107.25c-.018.045-.036.081-.036.081l-.081.027s.027-.036.009-.054c-.009-.018-.054-.063-.081-.063s-.063.009-.089.018c-.036.018-.081.018-.098-.018a.585.585 0 0 1-.063-.134.101.101 0 0 1 0-.089c.018-.045.17-.313.206-.367s.206-.34.242-.412c.036-.072.134-.233.152-.268s.027-.063.018-.089c-.018-.027-.018-.045-.027-.045-.018-.009-.045-.009-.045-.009l.072-.179z" />
      <path fill="#4d4d4d" style="fill:var(--color1, #4d4d4d)"
        d="M15.924 12.524c-2.38 0-4.178 1.467-4.178 3.131s1.798 3.131 4.178 3.131 4.187-1.467 4.187-3.131c-.009-1.664-1.807-3.131-4.187-3.131zm0 6.137c-2.406 0-4.044-1.503-4.044-2.997s1.637-2.997 4.044-2.997 4.044 1.503 4.044 2.997-1.637 2.997-4.044 2.997z" />
      <path fill="#4d4d4d" style="fill:var(--color1, #4d4d4d)"
        d="M15.915 13.643c.573.009.966.242.966.877 0 .662-.403.877-.966.886-.537 0-.966-.197-.966-.886 0-.608.438-.868.966-.877zm1.628 1.852c.573-.322.689-.653.644-1.038-.081-.698-1.038-1.199-2.299-1.181-1.521.018-2.442.778-2.442.984s.304.251.304.358v2.093c0 .134-.286.277-.286.42 0 .152.984.877 2.603.868 1.422-.009 2.245-.608 2.254-1.324.009-.394-.215-.912-.778-1.181zm-1.521 2.147h-.036c-.501 0-1.065-.143-1.065-.939 0-.805.555-.966 1.082-.975.501.009 1.038.188 1.038.975 0 .698-.492.939-1.02.939z" />
    </symbol>
    <symbol id="icon-car" viewBox="0 0 32 32">
      <path style="fill:var(--color2, #000)" opacity=".2"
        d="M23.641 22.105c1.151-.365 3.241-1.348 3.988-2.064.861-.751-.958-1.552-1.175-1.674s-10.833-5.205-12.684-5.989-7.65 1.005-9.05 1.807c-1.141.654-.322 1.094-.167 1.217s9.006 4.897 12.184 6.347c2.407 1.098 4.644 1.072 6.903.355z" />
      <path fill="#2c2c2c" style="fill:var(--color3, #2c2c2c)"
        d="M18.009 16.717c-.018-.044-1.259-.236-1.877-.326-.225.194-.683.602-.717.682-.043.1.012.881.505 1.447s1.559-.308 1.899-.445c.339-.137.213-1.303.19-1.357z" />
      <path fill="#131313" style="fill:var(--color4, #131313)"
        d="M9.007 12.414c-.018-.044-1.259-.236-1.877-.326-.225.194-.683.602-.717.682-.043.1.012.881.505 1.447s1.559-.308 1.899-.445c.339-.137.213-1.303.19-1.357z" />
      <path style="fill:var(--color2, #000)"
        d="m16.313 17.137 1.159-.557a.147.147 0 0 1 .022-.01c.691-.322 1.692.371 2.236 1.547s.426 2.39-.265 2.712l-.026.011-1.12.539-.642-1.357a3.841 3.841 0 0 1-.449-.741 3.805 3.805 0 0 1-.261-.76l-.655-1.385z" />
      <path style="fill:var(--color2, #000)"
        d="M16.081 19.835c.544 1.175 1.545 1.867 2.235 1.546s.809-1.535.265-2.71-1.545-1.867-2.235-1.546-.809 1.535-.265 2.71z" />
      <path style="fill:var(--color2, #000)"
        d="M16.354 19.691c.408.881 1.159 1.401 1.676 1.159s.607-1.151.199-2.033c-.408-.881-1.159-1.401-1.676-1.159s-.607 1.151-.199 2.033z" />
      <path fill="#4c4c4c" style="fill:var(--color5, #4c4c4c)"
        d="M17.32 18.005c.149.086.296.214.429.374l-.294.528a.635.635 0 0 0-.124-.111l-.011-.792zm.025 1.774a.24.24 0 0 0 .175.003l.452.761a.496.496 0 0 1-.068.038c-.164.076-.355.061-.549-.027l-.011-.774zm-.055.742-.011-.773a.642.642 0 0 1-.148-.124l-.289.518a1.6 1.6 0 0 0 .448.379zm-.025-1.762-.011-.79c-.203-.1-.406-.121-.578-.041a.519.519 0 0 0-.13.087l.456.767a.198.198 0 0 1 .051-.034.252.252 0 0 1 .212.01zm-.753.859c.081.175.179.334.286.47l.289-.518a1.012 1.012 0 0 1-.098-.165l-.008-.018-.508.144.038.087zm.987-.656.294-.528c.103.133.198.287.276.458l.046.105-.513.146-.009-.02a.886.886 0 0 0-.094-.16zm-1.05.508a2.139 2.139 0 0 1-.149-.704l.609.341a.825.825 0 0 0 .048.218l-.508.144zm1.178-.266c.032.09.048.179.049.259l.607.34a2.085 2.085 0 0 0-.143-.745l-.513.146zm.653.673-.608-.341a.318.318 0 0 1-.097.212l.449.755c.154-.132.24-.357.256-.627zm-1.981-1.186.608.341a.402.402 0 0 1 .052-.195l-.459-.773c-.127.146-.195.368-.2.627z" />
      <path style="fill:var(--color2, #000)"
        d="m16.313 17.112 1.159-.557.022-.011c.691-.322 1.692.371 2.236 1.547s.426 2.39-.265 2.712l-.019.009-1.126.542-.642-1.358a3.79 3.79 0 0 1-.448-.741 3.839 3.839 0 0 1-.261-.759l-.655-1.385z" />
      <path style="fill:var(--color2, #000)"
        d="M16.079 19.858c.538 1.162 1.525 1.846 2.205 1.53s.796-1.515.258-2.677c-.538-1.162-1.555-1.909-2.235-1.592s-.765 1.578-.228 2.739z" />
      <path style="fill:var(--color2, #000)"
        d="M16.428 19.674c.381.855 1.082 1.361 1.565 1.129s.566-1.112.184-1.967c-.381-.855-1.082-1.361-1.565-1.129s-.566 1.112-.184 1.967z" />
      <path fill="#474747" style="fill:var(--color6, #474747)"
        d="M16.699 19.656c.262.522.684.841 1.014.777l-.271-.596c-.137-.011-.292-.135-.404-.326l-.339.145zm-.08-.18c-.213-.537-.18-1.072.07-1.299l.271.596c-.08.123-.084.338-.004.559l-.336.144zm.981-.421c-.122-.243-.315-.397-.472-.385l-.267-.588c.346-.097.808.255 1.076.829l-.336.144zm.072.183.339-.145c.193.534.144 1.054-.119 1.259l-.267-.588c.092-.105.11-.309.048-.525z" />
      <path style="fill:var(--color2, #000)"
        d="m7.509 12.959 1.061-.29.021-.006c.63-.164 1.366.573 1.643 1.647s-.009 2.077-.64 2.241l-.024.006-1.026.281-.332-1.244a3.316 3.316 0 0 1-.365-1.366l-.339-1.27z" />
      <path style="fill:var(--color2, #000)"
        d="M6.898 15.194c.277 1.073 1.012 1.809 1.643 1.645s.917-1.167.64-2.239c-.277-1.073-1.012-1.809-1.643-1.645s-.917 1.167-.64 2.239z" />
      <path style="fill:var(--color2, #000)"
        d="M7.15 15.115c.208.805.759 1.357 1.232 1.234s.688-.875.48-1.68c-.208-.805-.759-1.357-1.232-1.234s-.688.875-.48 1.68z" />
      <path fill="#4c4c4c" style="fill:var(--color5, #4c4c4c)"
        d="M8.222 13.844c.112.095.216.225.304.381l-.329.399a.571.571 0 0 0-.087-.113l.113-.668zm-.253 1.498c.049.028.099.04.148.029l.263.71a.426.426 0 0 1-.063.022c-.15.039-.309-.004-.458-.108l.11-.653zm-.16.615.11-.651a.539.539 0 0 1-.105-.127l-.322.391c.092.161.201.293.318.387zm.25-1.486.112-.666c-.155-.116-.322-.164-.479-.123a.42.42 0 0 0-.123.053l.265.716a.163.163 0 0 1 .047-.02c.058-.015.119.001.177.041zm-.766.606c.041.16.099.308.168.439l.322-.391a.803.803 0 0 1-.057-.154l-.004-.016-.449.043.019.079zm.932-.399.329-.399a1.99 1.99 0 0 1 .184.523l-.455.043-.004-.018a.792.792 0 0 0-.054-.149zm-.962.265a1.811 1.811 0 0 1-.017-.615l.459.381a.732.732 0 0 0 .007.191l-.449.043zm1.032-.042a.716.716 0 0 1 .002.226l.458.38a1.774 1.774 0 0 0-.006-.649l-.455.043zm.447.667-.459-.381c-.023.075-.061.133-.113.163l.261.705c.15-.088.257-.263.311-.488zm-1.485-1.304.458.38a.334.334 0 0 1 .074-.156l-.267-.721c-.13.103-.221.28-.265.497z" />
      <path style="fill:var(--color2, #000)"
        d="M8.232 15.709a3.161 3.161 0 0 1-.391-.913 3.205 3.205 0 0 1-.103-.936l-.233-.872.562-.154a.798.798 0 0 1 .413-.279c.63-.164 1.366.573 1.643 1.647.265 1.026.015 1.987-.557 2.214l.019.07-1.044.38-.309-1.157z" />
      <path style="fill:var(--color2, #000)"
        d="M6.889 15.229c.276 1.069 1.009 1.803 1.637 1.64s.914-1.163.638-2.232c-.276-1.069-1.009-1.803-1.637-1.64s-.914 1.163-.638 2.232z" />
      <path style="fill:var(--color2, #000)"
        d="M7.197 15.123c.196.778.716 1.323 1.162 1.217s.648-.823.452-1.601-.716-1.323-1.162-1.216-.648.823-.452 1.601z" />
      <path fill="#474747" style="fill:var(--color6, #474747)"
        d="M7.409 15.164c.137.455.425.784.702.816l-.122-.549c-.104-.041-.205-.161-.267-.322l-.313.055zm-.043-.169c-.103-.504.018-.959.285-1.086l.122.549c-.095.085-.136.274-.098.483l-.309.054zm.903-.157c-.061-.226-.198-.393-.333-.423l-.12-.54c.305.009.631.389.761.909l-.308.054zm.03.171.313-.055c.074.485-.061.907-.332 1.006l-.12-.54c.1-.061.153-.222.139-.412z" />
      <path style="fill:var(--color2, #ba8fff)"
        d="M27.415 18.252c.155-.312.112-.588.117-.838l-.009-.637c-.007-.506-.008-.94-.015-1.106s.169-.649-.724-1.527c-.802-.789-2.553-1.692-2.988-1.802s-2.305-2.719-2.994-3.224c-2.058-1.511-7.242-2.917-8.52-2.899-.74-.021-3.812 1.561-4.154 1.779-1.768 1.126-.569.666-1.864 2.359-.086.092-.139.567-.117.805-.031.087-.101.268-.108.3-.041.198.103 1.18.106 1.371.003.223-.035.629.012.854s.623.756.627.688c-.003-.251.013-.296.073-.698.164-.628.461-.909.7-.962.499-.112.96.087 1.33.715.713 1.208.431 1.976.534 2.488l6.398 3.209c-.064-.356-.049-.203-.065-.426-.02-.279-.034-1.594.776-1.886.713-.257 1.638.633 2.076 1.36.368.61.664 1.865.723 2.531.339.167 1.58.849 3.466.228 3.713-1.224 4.466-2.368 4.621-2.68z" />
      <path style="fill:var(--color2, #000)"
        d="M17.485 14.475c-.611-.458-.57-1.045-1.518-2.705a.193.193 0 0 1 .088-.272l4.727-2.082c.068-.03.156-.042.212.006.147.125.51.499 1.403 1.581.565.684.673.855 1.091 1.268.05.049-.048.183-.259.362-.673.57-4.721 2.61-5.745 1.842zM11.724 9.665c-1.33-.631-1.694-.705-2.614-.34-.465.185-1.041.389-1.119.709s1.291 1.063 1.691 1.278c.196.105 7.176 3.675 7.027 3.251-.183-.521-1.18-2.603-1.547-3.129-.236-.338-2.108-1.138-3.438-1.77z" />
      <path style="fill:var(--color2, #ba8fff)" opacity=".21"
        d="M19.249 17.147c-1.705-.764-2.67-1.739-3.703-2.628 3.051.859 9.438 2.741 9.34 2.871-.122.162-.576.359-2.093.482-1.493.122-3.349-.638-3.545-.726z" />
      <path style="fill:var(--color2, #ba8fff)" opacity=".13"
        d="M25.737 13.298c-.097-.078-1.324-1.314-2.238-1.925.769 1.45 2.519 4.6 2.678 4.582.198-.023 1.103-.205 1.362-.826.255-.611-1.68-1.733-1.802-1.831z" />
      <path fill="#323232" style="fill:var(--color7, #323232)"
        d="M13.341 14.069a.066.066 0 0 0-.038-.059l-.572-.268a.065.065 0 0 0-.093.06l.001.082c0 .025.015.048.038.059l.571.267a.065.065 0 0 0 .093-.06l-.001-.081zM10.08 12.684a.066.066 0 0 0-.038-.059l-.572-.268a.065.065 0 0 0-.093.06l.001.082c0 .025.015.048.038.059l.571.267a.065.065 0 0 0 .093-.06l-.001-.081z" />
      <path fill="#c4c4c4" style="fill:var(--color8, #c4c4c4)" opacity=".2"
        d="m21.448 13.649-3.652-2.893c-.44.126-1.437.601-1.628.676-.247.097-.235.24-.235.24.001.075-.009.023.072.17.134.245.242.463.533 1.094.5 1.083.607 1.357 1.024 1.599.315.183.97.21 1.761-.063.707-.244 1.518-.539 2.125-.823z" />
      <path fill="none" opacity=".17" stroke="#000" style="stroke:var(--color2, #000)" stroke-linejoin="round"
        stroke-linecap="round" stroke-width="3.246" d="M26.673 14.931c-1.04.847-3.364 2.069-4.406 2.265" />
      <path fill="#141414" style="fill:var(--color9, #141414)"
        d="M27.05 15.396c.202-.28.14-.501.105-.85l-.004-.019c-.099-.284.301.284.347.679.015.13.008.196-.003.316-.005.055-.184.421-.166.494s.006.618.01.694c.004.075-.251.566-1.072 1.12-.682.46-1.665.769-1.767.785s-.205-.322-.279-.34c-.193-.046-.758.17-.97.227-.247.066-.822.217-1.455.145-.782-.089-.903-.177-1.626-.557-.492-.259-.843-.778-.962-1.052-.022-.051.024-.097.077-.081.472.146 1.544.527 2.758.634 1.726.153 3.075-.685 3.269-.806.813-.506 1.241-.695 1.739-1.388z" />
      <path style="fill:var(--color2, #ba8fff)" opacity=".12"
        d="m16.054 16.19-6.347-2.892c-.059-.027-.12.038-.094.097.296.669.261 1.378.248 1.722a.068.068 0 0 0 .037.062l5.687 2.811a.068.068 0 0 0 .098-.061c.006-.784.197-1.355.392-1.581.038-.044.032-.133-.021-.157z" />
    </symbol>
    <symbol id="icon-chevrolet" viewBox="0 0 32 32">
      <path
        d="m31.164 12.631-9.002.001c-.229 0-.379-.068-.379-.384v-1.336c0-.385-.207-.589-.584-.589H10.892c-.385 0-.584.218-.584.585v1.336c0 .282-.133.384-.38.384l-5.9.001c-.452 0-.716.215-.851.498L.303 18.741a.528.528 0 0 0-.059.239c0 .221.145.509.548.509l9.134-.001c.282 0 .38.128.38.384v1.335c0 .403.233.585.585.585h10.305c.351 0 .585-.17.585-.581l-.001-1.335c0-.273.115-.384.379-.384l5.729-.001c.394 0 .678-.104.877-.471l2.84-5.549c.063-.12.104-.188.104-.33 0-.379-.325-.511-.547-.511zm-2.269 2.236-1.37 2.679c-.086.156-.238.161-.346.161h-6.794c-.282 0-.384.127-.384.383v1.541c0 .255-.113.379-.387.379h-7.139c-.239 0-.385-.084-.385-.383v-1.54c0-.282-.129-.381-.385-.381H3.373c-.205 0-.346-.128-.346-.307 0-.052.013-.1.036-.145l1.37-2.678c.052-.093.138-.161.344-.161l6.927.001c.239 0 .388-.096.388-.387v-1.541c0-.273.119-.381.383-.381l7.137-.001c.256 0 .384.114.384.387v1.54c0 .265.123.381.388.381h8.198c.261 0 .347.172.347.308 0 .05-.013.1-.036.145z" />
    </symbol>
    <symbol id="icon-gmc" viewBox="0 0 32 32">
      <path
        d="M0 14.399c0-1.062.66-1.779 1.91-1.779h8.108v1.507H2.154c-.22 0-.416.113-.416.445v2.511c0 .305.128.502.53.502h5.539c.292 0 .517-.104.517-.488v-.588H5.082v-1.435h4.937v2.308c0 1.105-.804 1.709-2.066 1.709H1.924c-1.22 0-1.923-.66-1.923-1.766v-2.926zm17.249 4.692 2.77-4.909v4.909h1.736v-6.472h-2.67l-2.641 4.648-2.641-4.649h-2.669v6.472h1.736v-4.908l2.77 4.909h1.609zm14.751 0h-7.26c-1.222 0-1.923-.66-1.923-1.765v-2.927c0-1.062.658-1.779 1.907-1.779H32v1.627h-7.031c-.22 0-.417.111-.417.444v2.272c0 .306.129.502.531.502H32v1.627z" />
    </symbol>
    <symbol id="icon-hyundai" viewBox="0 0 32 32">
      <path
        d="M15.97 24.256c8.824 0 15.97-3.67 15.97-8.191S24.794 7.87 15.97 7.87C7.15 7.87 0 11.54 0 16.061s7.15 8.195 15.97 8.195zm2.999-4.026c-.261.613-.723 1.935-1.772 2.458-.322.151-.72.231-1.064.242-.08.011-.133 0-.151 0-2.95 0-5.692-.401-7.991-1.106-.019-.011-.072-.03-.072-.03-.231-.072-.341-.17-.341-.292 0-.102.049-.182.133-.261.03-.03.08-.072.14-.133.523-.443 2.136-1.602 5.131-2.765 1.06-.401 2.378-.905 3.76-1.2.818-.155 3.821-.606 2.227 3.086zm8.085-8.252c.049-.102.133-.189.273-.189.08-.011.17.011.322.11 1.875 1.155 2.995 2.598 2.995 4.162 0 2.829-3.628 5.253-8.809 6.317-.333.072-.553.072-.632-.019-.049-.061-.072-.14 0-.25a.747.747 0 0 1 .14-.182c2.825-3.333 4.98-8.252 5.582-9.68a.937.937 0 0 1 .129-.269zm-14.034-.11c.261-.614.723-1.935 1.772-2.458.322-.159.72-.231 1.064-.242h.159c2.939 0 5.684.413 7.979 1.106.019 0 .072.019.091.03.212.072.322.17.322.292 0 .11-.061.182-.133.261-.03.03-.08.08-.14.133-.534.443-2.125 1.602-5.131 2.749-1.06.413-2.378.905-3.76 1.212-.818.163-3.817.617-2.223-3.083zm-2.894-2.124c.333-.072.595-.072.663.019.049.049.072.14 0 .25-.03.061-.072.11-.133.189-2.829 3.333-4.98 8.252-5.582 9.668-.049.102-.091.201-.133.261-.061.102-.14.182-.273.189-.072 0-.17-.019-.333-.11-1.875-1.155-3.03-2.598-3.03-4.162.015-2.817 3.643-5.245 8.82-6.305z" />
      <path
        d="M15.97 7.869C7.15 7.869 0 11.527 0 16.049s7.15 8.18 15.97 8.18c8.824 0 15.97-3.67 15.97-8.18 0-4.522-7.146-8.18-15.97-8.18zm11.099 13.524c-2.95 1.511-6.889 2.348-11.096 2.348S7.835 22.9 4.885 21.393C2.045 19.931.488 18.042.488 16.057s1.564-3.878 4.4-5.34c2.95-1.522 6.889-2.348 11.096-2.348s8.142.833 11.096 2.348c2.844 1.462 4.4 3.355 4.4 5.336s-1.568 3.878-4.412 5.34z" />
    </symbol>
    <symbol id="icon-aston-martin" viewBox="0 0 32 32">
      <path
        d="M13.841 15.894h-.628c-.2.147-1.009.722-1.778 1.275.259.15.525.284.797.406l1.609-1.681zm-.954 0h-1.169c-.109.053-.678.319-1.291.606.266.203.544.394.828.563l1.631-1.169zm-2.628.475 1.012-.472H9.715c.156.147.528.459.544.472zm8.963-1.875c0-.119-.059-.184-.178-.203-.063-.009-.181-.003-.253 0h.003v.456c.041 0 .141.003.212-.012.134-.028.216-.116.216-.241z" />
      <path
        d="M22.459 13.887H9.515v1.816l.003.003h12.944v-1.819zm-11.762 1.529v-.012a5.838 5.838 0 0 0-.178-.453h-.431l-.012.022a6.078 6.078 0 0 0-.156.431v.012h-.156l.55-1.231h.059l.528 1.231h-.203zm.569.025c-.081 0-.225-.034-.287-.106h-.012l.034-.169h.034c.078.122.159.178.275.178.128 0 .241-.116.241-.253 0-.147-.125-.191-.253-.241-.141-.056-.297-.119-.297-.334 0-.206.153-.334.397-.334.078 0 .191.019.266.081l-.05.156h-.034a.207.207 0 0 0-.203-.144c-.119 0-.213.081-.213.191 0 .147.122.188.253.241.147.059.297.125.297.325-.003.241-.188.409-.447.409zm1.062-.025h-.169v-1.103c-.162 0-.266 0-.369.012h-.012v-.119h.922v.119h-.012c-.109-.012-.238-.012-.359-.012v1.103zm.981.025c-.387 0-.659-.259-.659-.634 0-.372.272-.622.659-.622.334 0 .672.178.672.6 0 .387-.266.656-.672.656zm1.894-.025h-.059l-.097-.106s-.75-.819-.756-.828v.934h-.119v-1.209h.084s.819.891.828.897v-.897h.119v1.209zm2.1.003h-.191v-.012a27.027 27.027 0 0 0-.084-.863c-.197.35-.344.616-.444.85h-.034l-.097-.203c-.084-.178-.316-.606-.334-.644-.003.05-.022.169-.022.169-.028.269-.059.522-.059.694v.012h-.144v-.016c.047-.281.153-1.009.169-1.188v-.012h.066c.141.275.297.597.481.897l.203-.369.288-.528h.063v.012c.053.509.1.891.144 1.188v.012zm1.01-.003-.012-.012a5.25 5.25 0 0 0-.178-.453h-.419l-.012.022c-.059.141-.122.278-.169.431v.012h-.144l.55-1.231h.05l.538 1.231h-.203zm.996 0h-.012l-.106-.156-.203-.262-.144-.169h-.05v.588h-.169v-1.209h.369c.269 0 .409.091.409.275 0 .169-.141.287-.359.334.022.025.481.6.481.6h-.216zm1.113-1.091h-.012c-.109-.012-.238-.012-.359-.012v1.103h-.169v-1.103c-.163 0-.266 0-.369.012h-.012v-.119h.922v.119zm.312 1.091h-.169v-1.209h.169v1.209zm1.278 0h-.059l-.097-.106s-.75-.819-.756-.828v.934h-.119v-1.209h.084s.819.891.828.897v-.897h.119v1.209z" />
      <path
        d="M17.741 14.853h.347a73.664 73.664 0 0 1-.169-.409c-.019.044-.169.381-.178.409zm-8.416-.072-.575.078c.078.094.159.191.244.287l.331-.069v-.297zm3.994-.528c-.294 0-.475.222-.481.575 0 .322.184.528.466.528a.42.42 0 0 0 .325-.134.64.64 0 0 0 .156-.409v-.022c0-.144-.016-.256-.106-.369a.461.461 0 0 0-.359-.169zm-5.647-1.009s.162.291.259.453h6.419c-.009-.022-.019-.059-.019-.059a1.03 1.03 0 0 0-.259-.494c-.172-.175-.416-.262-.716-.262v-.003H7.353c.203.156.313.353.319.366zm1.653 2.028c-.05.009-.109.022-.184.034.059.069.119.134.184.2v-.234zm0-.941-.931.063c.072.094.144.191.222.291l.709-.094v-.259zm5.981 1.563h-.45c-.159.272-.794 1.35-1.272 2.153.347.091.703.159 1.066.206l.656-2.359zm-.665 0h-.534a398.62 398.62 0 0 0-1.684 1.759c.319.134.644.247.978.341l1.241-2.1zm8.012-.382.188-.2-.188-.037v.238zm-12.516-.659h.347c-.009-.028-.162-.369-.178-.409-.022.044-.156.381-.169.409zm13.444-.459-.931-.063v.259l.709.094c.081-.097.156-.197.222-.291zm-.353.465-.578-.078v.297c.069.012.184.034.334.069.084-.094.166-.188.244-.287zm1.078-1.612c.006-.012.113-.206.322-.363h-6.006c-.3 0-.541.088-.716.262a1.003 1.003 0 0 0-.259.494s-.009.034-.022.063h6.422c.103-.175.188-.328.259-.456zm-.378.637H22.65v.25l1.066.069c.078-.109.15-.219.212-.319zm-4.365 3.772-1.684-1.759h-.534l1.238 2.1c.337-.097.663-.209.981-.341zm2.699-1.762h-1.556c.262.122.631.297 1.012.472.009-.006.384-.313.544-.472zm-.712.603-1.291-.603H19.09l1.634 1.166c.281-.166.556-.353.825-.563zm-4.878-.603.656 2.356c.363-.05.719-.116 1.066-.206l-1.272-2.15h-.45zm3.872 1.275-1.778-1.275h-.628c.319.331 1.025 1.069 1.613 1.678.269-.119.534-.253.794-.403zm1.981-1.263a8.71 8.71 0 0 1-.616.55c.731.344 1.447.678 1.447.678.094.047.372.156.559.103l1.506-.444a1.248 1.248 0 0 1-.134-.034l-2.762-.853zm-3.581 3.078-.45-.766a9.223 9.223 0 0 1-1.116.225l.216.784c.003.012.056.234.209.328a.318.318 0 0 0 .259.031l1.125-.306c-.137-.109-.228-.269-.244-.297zm1.59-.315L19.7 17.8a8.372 8.372 0 0 1-1.022.363l.428.722c.05.091.225.334.372.313l1.288-.35c-.131-.075-.225-.172-.231-.178zm-3.346-.207c-.278.031-.563.056-.853.066.203.197.809.775.809.775.216.209.269.259.441.309a.88.88 0 0 1-.175-.344l-.222-.806zm-2.344-.184c.344.041.694.063 1.05.066v-2.447h-.387l-.662 2.381zm-.272.991a.9.9 0 0 1-.175.344.617.617 0 0 0 .275-.156s.744-.709.975-.925a9.171 9.171 0 0 1-.853-.066l-.222.803zm6.14-1.975c-.269.156-.544.3-.828.428l.784.816c.069.072.288.25.466.206l.212-.059.981-.266c-.116-.053-.197-.113-.203-.116l-1.413-1.009zm-4.234-1.4h-.394v2.447a8.952 8.952 0 0 0 1.053-.066l-.659-2.381zm-2.99 2.322c-.259.441-.45.762-.45.762-.016.028-.109.191-.247.3l1.125.309a.34.34 0 0 0 .256-.031c.162-.097.213-.328.213-.331l.216-.784a9.453 9.453 0 0 1-1.113-.225zm-4.163-4.329H8.05c.066.1.137.206.209.319l1.063-.072v-.247zm22.562-.918c-.05-.078-.137-.084-.203-.088h-6.512c-.447 0-.697.45-.7.453-.056.106-.122.231-.203.363h7.106c.181-.012.206-.047.253-.116l.234-.387a.36.36 0 0 0 .047-.153.144.144 0 0 0-.022-.072zm-8.081 1.437c-.069.1-.147.203-.225.309l5.794.778c.222.028.288-.047.3-.063.053-.088.288-.509.288-.506a.413.413 0 0 1 .069-.103l-.072-.006-6.153-.409zm-2.065 2.185a9.929 9.929 0 0 1-.853.594c.719.512 1.353.966 1.353.966.003 0 .281.206.516.137.569-.212.65-.425.731-.631a.857.857 0 0 1 .137-.231c-.191-.034-.347-.116-.356-.119l-1.528-.716zm1.456-1.397 3.981.816c.15.031.578.097.794.038l1.294-.378-5.819-.781c-.078.103-.163.203-.25.306zm-.141.159c-.119.134-.244.269-.375.403l2.669.822c.003.003.369.122.647.05l1.356-.4a2.937 2.937 0 0 1-.209-.034l-4.087-.841zm.882-1.137 6.044.403c.094.012.369.034.509 0 .166-.056.216-.156.253-.222l.247-.434c.016-.025.031-.053.059-.081h-6.894a10.42 10.42 0 0 1-.219.334zm-12.85 2.968a8.972 8.972 0 0 1-.853-.597l-1.525.712c-.009.003-.169.084-.359.119a.79.79 0 0 1 .141.234c.081.206.166.419.728.631.238.075.516-.134.519-.137l1.35-.962zm.218 1.354.784-.816a8.44 8.44 0 0 1-.828-.428 753.03 753.03 0 0 0-1.412 1.012c-.006.003-.088.066-.206.116l1.197.328c.178.041.397-.137.466-.212zm-2.003-2.782a9.071 9.071 0 0 1-.375-.403l-4.088.841a2.478 2.478 0 0 1-.209.034c.441.128.909.269 1.356.4.278.075.641-.047.65-.05l2.666-.822zm3.994 2.407c-.35-.1-.691-.222-1.022-.363-.466.488-.834.869-.834.869-.006.006-.1.103-.234.178l1.287.35c.15.025.325-.222.375-.316l.428-.719zm-3.225-1.704a9.934 9.934 0 0 1-.616-.55c-.522.163-2.766.853-2.763.853-.006 0-.059.016-.138.034.816.244 1.45.428 1.506.444.188.053.466-.059.563-.106l1.447-.675zm-1.288-1.268a9.601 9.601 0 0 1-.25-.306l-5.822.781c.206.063.697.203 1.297.381.222.056.641-.009.794-.041l3.981-.816zm-.737-.969a7.354 7.354 0 0 1-.216-.334H.934c.069.081.2.341.3.512a.404.404 0 0 0 .253.222c.141.034.416.012.509.003l6.05-.403zm-.331-.522a9.538 9.538 0 0 1-.203-.363s-.259-.453-.7-.453H.3c-.159.003-.222.072-.225.159-.003.031.009.081.047.15l.234.387c.053.084.088.103.253.116v.003h7.106zm.459.709s-6.188.412-6.228.416c.025.028.05.059.069.097l.288.509c.013.019.081.091.3.063l5.797-.775a36.926 36.926 0 0 1-.225-.309z" />
    </symbol>
    <symbol id="icon-infiniti" viewBox="0 0 32 32">
      <path
        d="M20.151 24.222c.569-.071 4.524-.551 7.316-1.947 3.022-1.511 4.48-3.956 4.48-6.124 0-4.684-6.56-8.302-15.956-8.302S.053 11.44.053 16.151c0 2.196 1.44 4.667 4.48 6.124 2.809 1.351 6.791 1.849 7.387 1.947l4.071-11.911 4.16 11.911zm-4.16-13.769S9.795 18.711 9.2 19.457c-2.284-.204-6.24-1.716-6.24-4.302 0-3.289 5.76-6.356 13.031-6.356 7.636 0 13.031 3.067 13.031 6.356 0 2.604-3.956 4.089-6.24 4.276-.622-.791-6.791-8.978-6.791-8.978z" />
    </symbol>
    <symbol id="icon-mitsubishi" viewBox="0 0 32 32">
      <path d="M10.667 29.84H0l5.333-9.227H16zm10.666 0H32l-5.333-9.227H16zm0-18.453L16 2.16l-5.333 9.227L16 20.614z" />
    </symbol>
    <symbol id="icon-lamborghini" viewBox="0 0 32 32">
      <path
        d="M15.82 0a42.602 42.602 0 0 0-5.16.349l.211-.022-.813.111c-.097.012-.24.035-.315.051-.06.014-.153.031-.248.045l-.027.003a9.68 9.68 0 0 0-.417.067l.064-.01-.353.064c-.257.045-1.017.2-1.401.287-1.419.317-2.993.792-3.64 1.099-.457.217-1.029.675-1.24.991a2.824 2.824 0 0 0-.38 1.019l-.002.017c-.039.211-.043.307-.045 1.109a38.37 38.37 0 0 0 .059 2.487c.221 4.025.928 7.387 2.248 10.667.959 2.449 2.141 4.564 3.566 6.488l-.053-.075a29.188 29.188 0 0 0 4.527 4.893c1.025.88 2.316 1.873 2.768 2.127.515.289 1.093.312 1.587.063.4-.204 1.843-1.299 2.817-2.139a32.796 32.796 0 0 0 4.108-4.294l.051-.066c.68-.86 2.055-3.005 2.636-4.113 2.163-4.12 3.399-9.177 3.535-14.416.04-.856.06-1.632.04-2.039a5.958 5.958 0 0 0-.025-.328l.002.024.001-.529-.22-.457a2.267 2.267 0 0 0-.509-.709l-.001-.001c-.261-.273-.496-.428-1.044-.692C26.818 1.431 25.03.927 22.87.58a27.778 27.778 0 0 0-1.917-.274L20.8.292l-.539-.064a9.09 9.09 0 0 0-.516-.048l-.03-.002a49.7 49.7 0 0 0-2.548-.157l-.102-.003a28.16 28.16 0 0 0-.958-.016l-.299.002h.015zm.223 1.107c4.453-.009 8.171.581 11.199 1.776 1.12.44 1.32.577 1.547 1.056.171.36.173.413.125 2.255-.263 10.12-3.733 17.625-10.817 23.388-.859.7-1.755 1.337-1.979 1.408-.111.035-.313-.044-.644-.249-.656-.407-2.291-1.737-3.387-2.757-1.803-1.673-3.609-3.916-4.84-6.008-2.627-4.459-3.991-9.659-4.152-15.821-.047-1.8-.043-1.856.128-2.216.227-.476.429-.616 1.507-1.036 2.973-1.164 6.113-1.701 10.413-1.785.304-.005.604-.009.9-.009zm-1.255.944-.06.004c-.267.032-.597.275-.756.563-.364.66-.293 2.123.128 2.632.164.2.251.235.561.235.207 0 .445-.053.543-.124.097-.069.253-.276.347-.46.245-.48.251-1.687.009-2.224-.155-.343-.444-.591-.717-.621l-.029-.003h-.027zm1.459.08-.023 1.644c-.009.434-.013.946-.013 1.459v.126-.007a.405.405 0 0 0 .028.083l-.001-.003c.033.007.119.012.231.012h.243V4.74c0-.675.007-.703.168-.679.133.02.216.168.409.724l.243.699h.587l-.259-.752-.257-.753.211-.201c.257-.248.337-.608.227-1.023-.121-.463-.429-.623-1.188-.624zm3.168.08c-.673 0-.977.511-.973 1.637 0 .744.112 1.213.352 1.484.277.311.88.365 1.26.112.205-.136.336-.555.34-1.077a1.48 1.48 0 0 0-.024-.325c-.044-.125-.173-.141-.543-.177l-.313-.031c-.055.032-.059.107-.059.272v.053l.001.024c.008.157.047.184.195.184.157 0 .195.04.195.205 0 .473-.373.683-.653.368-.384-.432-.297-2.08.116-2.213.173-.056.46.153.46.335 0 .069.096.107.273.107.312 0 .347-.105.157-.477a.807.807 0 0 0-.738-.481l-.048.001h.002zm-6.932.05-.086-.001c-.123 0-.245.007-.365.021l.015-.001-.471.051-.043 3.331.571-.056c.313-.032.653-.099.759-.148.321-.157.504-.488.511-.927.004-.307-.033-.439-.164-.572-.168-.171-.168-.173-.02-.421a.905.905 0 0 0 .03-.934l.002.005c-.111-.217-.351-.332-.739-.347zm8.382.099v3.347l.273.032.275.033v-.743c0-.823-.025-.792.569-.692l.293.051v.741c0 .64.019.748.137.78.347.092.337.133.315-1.603l-.021-1.657-.431-.051v1.291l-.333-.048c-.547-.077-.529-.053-.529-.749 0-.46-.027-.643-.097-.643a1.336 1.336 0 0 1-.284-.052l.01.002-.128-.036zm-9.877.043-.267.032c-.263.031-.272.045-.476.721-.113.38-.253.835-.309 1.011l-.103.32-.255-.839c-.14-.461-.283-.869-.317-.907-.033-.037-.171-.044-.304-.013l-.243.053v1.632c0 1.553.007 1.631.151 1.631a.847.847 0 0 0 .259-.042l-.006.002c.077-.031.099-.187.08-.583a8.08 8.08 0 0 1 0-.879l-.001.021c.024-.293.048-.251.331.595l.305.913.283-1.024.283-1.023.012.48a.318.318 0 0 1 .003.189l.001-.002.007.231c.019.771.04.889.143.849a.864.864 0 0 1 .271-.048h.001c.144 0 .151-.077.151-1.661zm5.723.186.331.044c.469.065.667.395.433.721-.107.147-.608.267-.707.167-.031-.032-.057-.256-.057-.496zm-1.95.034c.111.005.217.093.303.267.176.357.163 1.613-.021 1.9-.177.276-.407.276-.584 0-.101-.157-.147-.412-.163-.937-.02-.619 0-.761.14-.987.101-.167.215-.247.325-.243zm-2.676.146h.259c.313 0 .447.12.447.405 0 .253-.107.353-.451.42l-.253.049v-.437zm11.33.007a.124.124 0 0 0-.041.03v3.307l.216.033c.119.017.241.039.275.044.032.007.059-.721.059-1.62 0-.897-.027-1.647-.059-1.667a1.516 1.516 0 0 0-.264-.083l-.011-.002zm-15.972.291a.931.931 0 0 0-.189.035l.007-.002c-.24.067-.243.077-.533 1.367-.16.715-.341 1.507-.4 1.763l-.108.464.248-.053c.115-.022.215-.051.311-.088l-.012.004c.027-.016.073-.227.104-.469.06-.493.055-.485.445-.56l.284-.055.093.403c.093.395.101.401.344.355.105-.016.199-.043.288-.079l-.008.003c.04-.033-.704-3.004-.769-3.072-.013-.013-.052-.019-.104-.015zm17.028.024v1.635c0 1.256.023 1.637.099 1.639.053 0 .176.023.272.049.171.047.173.035.196-.925l.021-.973.429 1.089c.235.6.483 1.123.548 1.161.312.187.32.141.299-1.573l-.021-1.653-.216-.057-.216-.059v.891c-.003 1.023-.011 1.019-.48-.187-.344-.883-.455-1.037-.749-1.037zm-19.467.718c-.016 0-.14.04-.276.087l-.247.088v.413l.023 1.317c.011.627.027 1.127.061 1.576.015.005.032.003.053-.007.076-.031.428-.163.784-.296.608-.225.647-.253.647-.472 0-.127-.012-.232-.027-.232s-.232.072-.483.16a5.848 5.848 0 0 1-.426.145l-.056.015c-.015 0-.027-.629-.027-1.397 0-.769-.013-1.397-.027-1.397zm22.003 0c-.015 0-.027.749-.027 1.665v1.665l.253.083c.141.047.264.087.275.092.011.004.02-.743.02-1.661V3.982l-.247-.088a2.499 2.499 0 0 0-.256-.083l-.018-.004zm-14.598.275c.351.013.569.396.372.757-.084.153-.187.212-.404.231l-.292.024v-.475c0-.415.02-.48.165-.519a.53.53 0 0 1 .142-.019h.018-.001zm-5.136.004.104.429c.057.24.076.353.055.421a.063.063 0 0 1-.027.049.164.164 0 0 1-.033.026h-.001c-.188.121-.317.084-.267-.08.027-.083.075-.307.107-.499zm9.172 2.213c-.74.017-1.379.227-1.741.595-.324.329-.36.68-.091.86.34.225.897.293 2.891.357 1.824.059 2.043.08 2.36.236.389.193.559.444.547.813-.008.307-.209.636-.391.636-.305 0-1.319-.259-2.035-.52a6.449 6.449 0 0 0-.832-.263l-.049-.01-.051-.004c-.192.005-.424.161-1.091.735a7.596 7.596 0 0 1-1.156.787c-1.112.591-1.455 1.059-1.609 2.199-.084.617-.187.864-.665 1.583-.397.597-.677 1.4-.68 1.943 0 .263-.093.681-.245 1.119-.2.577-.245.836-.26 1.496-.016.685-.047.853-.217 1.172a2.61 2.61 0 0 0-.256.899c-.049.48-.089.568-.44.987-.212.251-.385.5-.385.553a.471.471 0 0 1-.084.171c-.011.051-.035.087-.065.091-.03.041-.059.078-.089.112l.001-.001c-.299.347-.445.745-.32.872.065.067.119.045.209-.085.172-.251.271-.22.192.059-.045.16-.037.248.025.276.117.052.563-.019.796-.127.123-.057.213-.204.28-.453.053-.204.152-.436.219-.515.073-.088.135-.353.155-.675.029-.469.068-.575.333-.917.173-.221.356-.583.428-.843.071-.251.183-.564.251-.696.503-.987.827-1.557.884-1.557.173 0 .312.379.312.853 0 .373.032.515.125.568.113.064.115.097.012.304a2.481 2.481 0 0 0-.166.448l-.004.018c-.076.32-.327.663-.589.8-.12.064-.381.277-.581.476-.288.285-.364.413-.363.623.001.352.115.536.247.4.157-.16.229-.113.173.113-.051.205-.043.211.211.16.324-.067.617-.257.672-.436.023-.075.072-.189.109-.255.039-.067.183-.365.323-.667.173-.373.364-.637.604-.837.192-.16.4-.417.464-.571.185-.451.724-.837.724-.517 0 .187-.304.752-.525.977-.279.284-.493.665-.493.876 0 .185.109.24.196.1.085-.141.183-.085.14.08-.003.012-.007.028-.009.044v.002c.013.04.033.073.06.1a.6.6 0 0 0 .149.013c.403 0 .783-.232.84-.513.049-.19.119-.356.208-.51l-.005.01c.099-.165.133-.323.101-.455-.053-.215.091-.769.2-.769.08 0 .365.596.437.92.042.158.114.295.21.413l-.002-.002c.144.161.207.171.911.131.729-.041.764-.053.953-.289.141-.179.208-.38.24-.729.056-.616.323-1.035.933-1.472l.456-.325.112.179c.063.097.196.385.297.639.171.421.177.491.087.853-.055.219-.076.472-.048.564.029.093-.009.341-.087.56l-.06.171-.012.075a.802.802 0 0 0-.019.175v.029-.001l.137.147c.209.229.355.257.421.083.059-.16.207-.155.207.007 0 .169.153.107.331-.133.136-.187.137-.22.021-.555-.069-.197-.108-.42-.089-.495.019-.076 0-.292-.043-.48a3.525 3.525 0 0 1 .019-1.484l-.005.024c.076-.371.067-.452-.111-.84-.108-.236-.181-.445-.164-.463.019-.019.167.02.331.085.76.304 1.353.235 1.715-.2l.184-.223a.144.144 0 0 0 .005-.037l-.439-.04a9.42 9.42 0 0 1-.346-.038l.046.005c-.265-.044-.381-.14-.805-.519-.392-.349-.405-.376-.364-.688.025-.185-.013-.589-.089-.935-.123-.563-.123-.644-.008-1.045.068-.24.124-.543.124-.671 0-.387-.211-.981-.46-1.297a2.004 2.004 0 0 1-.313-.602l-.004-.014a2.484 2.484 0 0 0-.283-.621l.006.01c-.181-.272-.187-.305-.079-.567.072-.214.114-.461.115-.717 0-.383-.033-.479-.255-.735-.48-.557-.707-.609-3-.677-2.647-.08-3.063-.181-2.652-.644.168-.189.443-.184 1.013.019.625.221 1.389.276 1.836.132.384-.124.391-.117-.275-.259-.107-.023-.196-.08-.196-.129 0-.017.011-.029.028-.039.012-.024.068-.029.173-.017.048.003.104.008.171.017 1.025.139 1.196.149 1.196.071 0-.129-.688-.396-1.407-.544-.29-.063-.622-.1-.963-.1l-.095.001h.005zm.284.655c.114.011.219.036.317.075l-.008-.003.339.123-.243.004-.032.001-.041-.003h-.022a.84.84 0 0 1-.333-.069l.005.002c-.137-.089-.107-.137.017-.131z" />
    </symbol>
    <symbol id="icon-subaru" viewBox="0 0 32 32">
      <path
        d="M16 6.644c4.005 0 8.299.816 11.715 2.985C29.935 11.048 32 13.2 32 16.002c0 3.275-2.796 5.656-5.475 7.049-3.188 1.651-6.955 2.304-10.525 2.304-4.004 0-8.289-.807-11.707-2.984C2.074 20.951 0 18.8 0 16.003c0-3.289 2.789-5.661 5.475-7.057C8.672 7.298 12.431 6.643 16 6.643zm-.033.995c-3.724 0-7.736.697-10.967 2.644C2.968 11.499.96 13.412.96 15.954c0 2.985 2.72 5.075 5.152 6.275 3.011 1.469 6.529 2.04 9.855 2.04 3.731 0 7.745-.697 10.976-2.644 2.023-1.224 4.039-3.128 4.039-5.671 0-2.991-2.713-5.084-5.152-6.273-3.011-1.472-6.531-2.04-9.863-2.04zM1.913 13.887l6.129-1.045 1.845-4.004 1.837 4.003 6.128 1.045-6.128 1.056-1.837 4.013-1.845-4.013zm13.475 3.052 2.704-.475.807-1.812.808 1.812 2.704.475-2.704.467-.808 1.813-.807-1.813zm5.595-4.828 2.704-.467.807-1.82.808 1.819 2.704.467-2.704.476-.808 1.813-.808-1.813zm-2.89 8.569 2.693-.467.809-1.82.816 1.82 2.703.467-2.703.476-.816 1.813-.808-1.813zm-8.306.655 2.704-.467.816-1.821.807 1.821 2.704.467-2.704.476-.807 1.812-.816-1.812zm13.594-4.471 2.696-.476.807-1.812.816 1.812 2.704.476-2.704.467-.816 1.809-.808-1.809z" />
    </symbol>
    <symbol id="icon-hummer" viewBox="0 0 32 32">
      <path
        d="M2.895 15.625H1.95v-1.306H-.001v3.416H1.95v-1.324h.945v1.324h1.951v-3.416H2.895zM8.055 16.6c0 .234-.141.503-.49.503-.344 0-.486-.269-.486-.503v-2.282H5.128v2.313c0 .344.3 1.103 1.417 1.103h2.044c1.117 0 1.417-.755 1.417-1.103v-2.313H8.055V16.6zM13.263 15.704l-.772-1.386h-2.233v3.416h1.792v-1.465l.803 1.465h.817l.803-1.465v1.465h1.792v-3.416h-2.233zM19.522 15.704l-.768-1.386h-2.238v3.416h1.796v-1.465l.803 1.465h.817l.803-1.465v1.465h1.792v-3.416h-2.233zM22.749 17.735h3.809v-.945h-1.796v-.38h1.796v-.786h-1.796v-.362h1.796v-.945h-3.809zM31.718 15.453c0-.424-.269-1.134-1.024-1.134H26.81v3.412h1.951v-.993l.834.993h2.406l-1.024-1.209c.41.018.742-.644.742-1.068zm-2.424.441h-.534v-.772h.596c.486 0 .441.772-.062.772z" />
    </symbol>
    <symbol id="icon-volvo" viewBox="0 0 32 32">
      <path
        d="m28.832 6.4.768-.768c.544.704.992 1.472 1.472 2.272h.608V.352h-7.584V.96c.8.416 1.504.896 2.208 1.472l-.768.768C22.88 1.152 19.584 0 16 0 7.136 0 0 7.136 0 16s7.136 16 16 16 16-7.136 16-16c0-3.616-1.216-6.944-3.168-9.6zM27.68 18.88c-1.312 5.216-6.048 9.152-11.68 9.152S5.6 24.16 4.32 18.88h23.36zM4.288 13.088C5.6 7.84 10.336 3.936 15.968 3.936s10.4 3.872 11.68 9.152H4.288zm20.256 2.848c0-.544.288-1.056.768-1.056.448 0 .704.512.704 1.12 0 .544-.256 1.12-.768 1.12-.512-.064-.704-.608-.704-1.184zm-13.28 0c0-.544.288-1.056.768-1.056.448 0 .704.512.704 1.12 0 .544-.256 1.12-.768 1.12-.512-.064-.704-.608-.704-1.184zm.768-1.536c1.408 0 2.112.704 2.112 1.568s-.704 1.568-2.112 1.568-2.112-.736-2.112-1.6.704-1.536 2.112-1.536zm-4.32 2.368.992-1.856h-.608v-.448h2.048v.448H9.44L8.096 17.44h-1.6l-1.408-2.528h-.704v-.448h3.008v.448h-.704l1.024 1.856zm17.6-2.368c1.408 0 2.112.704 2.112 1.568s-.704 1.568-2.112 1.568c-1.408 0-2.112-.704-2.112-1.568s.704-1.568 2.112-1.568zm-6.912.544h-.704v-.448h3.008v.448H20l.992 1.856.992-1.856h-.544v-.448h2.048v.448h-.704l-1.344 2.528h-1.6c-.032 0-1.44-2.528-1.44-2.528zm-3.424 0h-.704v-.448h2.752v.448h-.704v2.048h.64c.608 0 .96-.416.96-.896h.448v1.408h-4.096v-.448h.704v-2.112z" />
    </symbol>
    <symbol id="icon-mercedes" viewBox="0 0 32 32">
      <path
        d="M16.007 0c8.831 0 16 7.169 16 16s-7.169 16-16 16-16-7.169-16-16 7.169-16 16-16zM4.333 23.385c2.487 3.888 6.782 6.428 11.671 6.428h.002c4.908 0 9.223-2.565 11.673-6.428l-11.673-4.448-11.673 4.448zm14.218-8.854 9.689 7.887c.995-1.855 1.58-4.058 1.58-6.397V16v.001c0-7.436-5.889-13.508-13.253-13.803l1.984 12.333zM15.447 2.197C8.083 2.492 2.194 8.564 2.194 16c0 2.316.571 4.499 1.58 6.417l9.689-7.887 1.984-12.333z" />
    </symbol>
    <symbol id="icon-bmw" viewBox="0 0 32 32">
      <path
        d="M16 0C7.164 0 0 7.164 0 16s7.164 16 16 16 16-7.164 16-16S24.836 0 16 0zm0 1.04c8.261 0 14.959 6.697 14.959 14.96 0 8.261-6.696 14.959-14.959 14.959S1.041 24.262 1.041 16 7.738 1.04 16 1.04zm-.904.84c-.44.019-.88.056-1.323.104l-.143 3.925a11.4 11.4 0 0 1 .892-.121l.055-.004.093-2.651-.017-.183.057.173.885 1.985h.808l.885-1.984.053-.175-.013.183.093 2.651c.309.029.631.072.947.125l-.145-3.925a17.72 17.72 0 0 0-1.279-.102l-.043-.002-.871 2.167-.031.16-.031-.16-.873-2.167zm8.928 2.432-2.057 3.237c.26.2.603.495.823.696l1.937-1.005.123-.092-.092.125-1.003 1.937c.217.233.531.611.707.84l3.24-2.059a21.84 21.84 0 0 0-.638-.788l.025.03-2.052 1.352-.14.123.104-.153.907-1.808-.64-.64-1.808.907-.153.104.121-.141 1.357-2.052a20.44 20.44 0 0 0-.76-.613zm-16.691.735c-.48.049-.851.377-1.857 1.5-.319.36-.649.756-.967 1.163l-.042.056 2.765 2.623C8.148 9.376 8.52 9 9.243 8.238c.511-.54.8-1.16.288-1.756-.277-.323-.744-.393-1.133-.233l-.037.013.013-.035a.931.931 0 0 0-.322-.977l-.002-.002a.96.96 0 0 0-.721-.199h.005zm.008.82c.181-.049.369.08.411.267.043.187-.075.363-.205.509-.293.333-1.375 1.464-1.375 1.464l-.536-.511c.556-.68 1.148-1.299 1.416-1.544a.738.738 0 0 1 .284-.184l.005-.002zM16 6.511h-.004c-4.898 0-8.928 3.712-9.432 8.476l-.004.041v.003a9.496 9.496 0 0 0 11.416 10.252l-.062.011c4.353-.918 7.573-4.727 7.573-9.288v-.005c-.005-5.238-4.25-9.482-9.488-9.487v-.003zm-7.383.322a.33.33 0 0 1 .187.057.327.327 0 0 1 .141.347c-.035.159-.167.308-.273.424L7.279 9.154l-.56-.533s1.049-1.109 1.393-1.465c.136-.141.224-.227.317-.273a.42.42 0 0 1 .186-.049h.001zM16 7.757h.009a8.233 8.233 0 0 1 8.233 8.233V16h-8.243v8.243h-.009a8.233 8.233 0 0 1-8.233-8.233V16v.001H16V7.758z" />
    </symbol>
  </defs>
</svg>